<?xml version="1.0" encoding="UTF-8" standalone="no"?>
<!-- Generator: Adobe Illustrator 26.3.1, SVG Export Plug-In . SVG Version: 6.00 Build 0)  -->

<svg
   version="1.1"
   id="Layer_1"
   x="0px"
   y="0px"
   viewBox="0 0 341 117"
   xml:space="preserve"
   sodipodi:docname="Tehokas_luova.svg"
   width="341"
   height="117"
   inkscape:version="1.2.1 (ef4d3fba62, 2022-07-19, custom)"
   xmlns:inkscape="http://www.inkscape.org/namespaces/inkscape"
   xmlns:sodipodi="http://sodipodi.sourceforge.net/DTD/sodipodi-0.dtd"
   xmlns:xlink="http://www.w3.org/1999/xlink"
   xmlns="http://www.w3.org/2000/svg"
   xmlns:svg="http://www.w3.org/2000/svg"><defs
   id="defs666" /><sodipodi:namedview
   id="namedview664"
   pagecolor="#ffffff"
   bordercolor="#666666"
   borderopacity="1.0"
   inkscape:showpageshadow="2"
   inkscape:pageopacity="0.0"
   inkscape:pagecheckerboard="0"
   inkscape:deskcolor="#d1d1d1"
   showgrid="false"
   inkscape:zoom="3.91"
   inkscape:cx="300"
   inkscape:cy="150"
   inkscape:window-width="2506"
   inkscape:window-height="1376"
   inkscape:window-x="2614"
   inkscape:window-y="27"
   inkscape:window-maximized="1"
   inkscape:current-layer="Layer_1" />
<style
   type="text/css"
   id="style629">
	.st0{clip-path:url(#SVGID_00000059308975785889200690000009744668291418494904_);}
	.st1{fill:#D49E3B;}
	.st2{font-family:'freeversionSketchBlock-Bold';}
	.st3{font-size:40.7px;}
	.st4{letter-spacing:-2;}
	.st5{letter-spacing:-1;}
	.st6{letter-spacing:-3;}
	.st7{fill:#8B9B92;}
	.st8{font-size:26.4px;}
</style>
<g
   id="g639"
   transform="translate(-129.40746,-93.677843)">
	<defs
   id="defs632">
		<rect
   id="SVGID_1_"
   x="130.16"
   y="94.519997"
   width="339.42999"
   height="115.79" />
	</defs>
	<clipPath
   id="SVGID_00000160872546426101731910000000106931866384065692_">
		<use
   xlink:href="#SVGID_1_"
   style="overflow:visible"
   id="use634" />
	</clipPath>
	<path
   d="m 400.25,152.82 c 0.65,-0.06 2.06,-1.27 2.18,-2.36 0.55,-1.13 2.14,-2.79 1.9,-5.6 -0.36,-4.09 -4.74,-6.97 -7.54,-6.72 -2.59,0.23 -5.13,0.88 -6.76,2.11 -1.2,1.19 -2.3,1.07 -4.18,1.89 -2.06,1.27 -6.79,4.29 -8.97,6.65 -2.63,2.18 -6.15,6.62 -8.14,8.75 -1.3,2.5 -2.4,2.38 -4.13,4.92 -1.77,2.11 -4.17,6.88 -5.31,11.32 -1.58,4.26 -2.38,7.59 -2.07,11.04 0.19,2.16 3.49,5.12 6.94,4.82 3.88,-0.34 7.57,-2.83 10.01,-4.79 1.83,-1.46 2.02,-1.7 3.38,-3.55 1,-0.96 2.08,-1.05 3.22,-2.89 1.16,-1.62 1.36,-1.86 3.38,-3.55 1.99,-2.13 2.83,-2.42 3.77,-4.02 0.71,-1.8 2.99,-3.08 4.28,-3.2 1.29,-0.11 1.43,1.4 3.33,5.79 2.3,3.93 10.93,13.03 16.43,15.57 8.91,4.11 20.11,5.19 37.72,-7.61 0.2,-0.23 6.56,-6.27 6.78,-6.29 2.04,-1.48 4.62,-6.7 5.9,-7.03 0.84,-0.29 0.89,-1.95 3.25,-4.76 2.06,-1.27 2.5,-4.21 3.52,-4.95 1.02,-0.74 0.02,-1.39 -0.04,-2.03 -0.06,-0.65 -2.04,-0.06 -2.47,-0.02 -0.43,0.04 -1.43,1.94 -1.84,2.2 -1.22,0.97 -1.11,2.46 -2.51,3.88 -1.16,1.62 -2.08,3.2 -3.32,3.96 -1.22,0.97 -4.49,4.19 -4.83,5.31 -0.36,0.9 -8.85,7.42 -9.83,8.6 -0.39,0.47 -11.1,6.26 -13.68,6.49 -2.8,0.24 -14.6,1.93 -23.78,-15.8 -1.36,-3.14 -3.1,-5.59 -4.08,-9.42 -0.6,-1.9 -3.2,-4.28 -5.35,-4.09 -2.15,0.19 -4.12,2.53 -6.07,5.09 -1.52,2.52 -3.52,4.43 -4.66,6.27 -1.38,1.64 -2.79,2.85 -3.75,4.24 -1.42,1.21 -2.16,2.58 -2.74,3.5 0,0 -0.77,1.15 -2.42,2.17 -0.63,0.27 -2.4,2.38 -3.61,3.36 -1.22,0.98 -4.09,2.96 -5.59,3.1 -0.86,0.07 -1.8,-0.71 -1.89,-1.79 -0.23,-2.59 0.26,-6.97 2.13,-10.39 1.68,-3.19 2.21,-4.54 3.78,-6.41 0.69,-2.01 2.7,-3.93 3.01,-5.26 0.1,-1.31 3.68,-5.1 5.02,-7.17 4.27,-5.8 7.55,-8.04 9.39,-9.29 2.22,-1.93 4.71,-3.24 7.3,-3.46 2.59,-0.22 4.42,0.92 4.61,3.07 0.21,2.37 -0.99,3.56 -1.37,4.25 -1.61,1.44 -1.79,1.89 -1.73,2.54 0.02,0.38 0.57,1.64 1.43,1.56 m -47.84,4.19 c -1.3,2.5 -3.43,5.51 -6.38,9.03 l -6.08,7.48 c -2.36,2.81 -4.15,4.71 -6.86,6.03 -2.69,1.54 -7.68,6.53 -9.55,7.57 -0.2,0.23 -0.41,0.25 -0.63,0.27 -0.43,0.04 -0.68,-0.37 -0.7,-0.59 -0.06,-0.65 0.32,-1.33 0.46,-2.21 0.46,-2.21 1.48,-2.95 2.51,-6.08 1.28,-2.72 1.48,-2.95 3,-5.47 1.28,-2.72 2.76,-5.67 3.4,-8.33 0.87,-2.46 1.52,-2.52 3.63,-8.14 1.62,-3.83 1.67,-5.79 1.49,-7.73 -0.43,-4.96 -4.42,-8.3 -5.57,-9.07 -1.15,-0.77 -2.02,-0.69 -2.88,-0.62 -0.43,0.04 -0.61,0.49 -0.59,0.7 0.04,0.43 0.72,0.81 1.23,1.63 0.25,0.41 0.45,0.18 0.62,2.12 0.13,1.51 -0.38,3.07 -1.04,5.52 -0.42,2.64 -2.45,6.73 -3.71,9.66 l -3.56,9 c -0.99,3.56 -1.94,5.16 -3.24,7.67 -1.05,2.91 -5.11,11.09 -4.96,12.81 0.13,1.51 2.93,3.65 5.3,3.45 2.15,-0.19 6.49,-2.74 8.12,-3.97 1.99,-2.13 4.55,-2.57 6.89,-5.6 2.99,-3.09 6.48,-5.35 12.99,-12.86 2.58,-2.83 2.99,-3.08 4.33,-5.16 0.91,-2.03 1.95,-2.56 3.92,-4.9 2.18,-2.36 4.49,-5.13 6.67,-8.25 3.43,-4.37 4.5,-6.14 4.12,-10.45 -0.4,-4.53 -1.54,-7.68 -3.27,-7.53 -0.43,0.04 -1.9,0.6 -3.32,1.81 -0.81,0.72 -1.3,2.5 -0.87,7.46 0.19,2.16 -1.36,5.29 -1.66,6.84 m -60.57,-0.38 c 1.08,-0.09 2.93,1.26 3.28,2.75 0.25,0.41 0.31,1.06 0.37,1.71 0.11,1.29 0.03,2.82 0.16,4.33 0.23,2.59 0.08,5.86 -0.85,7.68 -0.53,1.35 -0.76,3.76 -2.59,7.61 -1.42,3.6 -2.71,6.32 -3.57,6.39 -0.65,0.06 -1.11,-0.34 -2.62,-0.21 -1.29,0.11 -4.87,3.9 -4.72,5.62 0.09,1.08 2.56,1.95 2.62,2.6 0.06,0.65 -1.2,1.19 -3.06,2.22 -1.59,1.66 -3.2,3.1 -4.26,3.41 -1.49,0.35 -3.24,2.67 -4.97,2.82 -1.72,0.15 -2.23,-0.67 -3.66,-2.07 -1.17,-0.98 -1.79,-3.1 -2.06,-6.12 -0.23,-2.59 0.51,-6.56 1.97,-9.73 1.26,-2.93 2.41,-4.77 2.7,-6.32 0.51,-1.57 2.07,-3.65 3.03,-5.04 0.93,-1.82 1.21,-3.58 3.01,-5.26 2.2,-2.15 3.11,-4.18 5.47,-6.99 3.4,-3.54 7.17,-5.17 9.75,-5.4 m 0.21,-2.62 c -3.66,0.32 -5.8,0.72 -7.21,1.93 -0.79,0.94 -1.22,0.98 -1.65,1.01 -2.96,0.91 -4.84,1.73 -7.64,4.58 -2.81,2.64 -6.09,4.88 -7.21,6.93 -1.32,2.29 -2.5,3.69 -3.88,5.33 -1.16,1.62 -2.5,3.69 -4.67,8.66 -2.39,4.99 -3.8,11.19 -3.5,14.64 0.34,3.88 3.52,7.95 5.51,8.42 1.84,1.14 2.05,1.12 3.42,1.87 0.92,0.57 2.25,0.89 4.62,0.68 1.72,-0.15 3.28,-2.24 4.14,-2.32 1.29,-0.11 2.69,-1.54 4.36,-2.34 1.65,-1.01 5.12,-3.49 6.29,-5.11 1.36,-1.86 2.99,-3.08 5.36,-3.29 1.94,-0.17 4.67,-1.28 7.84,-2.21 2.94,-1.13 3.73,-2.06 8.34,-3.99 2.51,-1.09 4.96,-2.82 6.52,-4.91 2.06,-1.27 3.42,-3.12 4.44,-3.86 1.02,-0.74 1.42,-1.21 1.36,-1.86 -0.06,-0.65 -0.31,-1.06 -0.74,-1.02 -0.43,0.04 -0.84,0.29 -1.04,0.52 l -4.24,3.63 c -0.96,1.39 -4.83,4.33 -6.05,5.31 -1.24,0.76 -3.79,1.42 -5.02,2.18 -1.69,0.58 -4.65,1.49 -5.72,1.59 l -1.94,0.17 c -1.08,0.09 -1.96,-0.05 -2.03,-0.91 -0.1,-1.08 2.48,-3.91 3.57,-6.39 3.26,-7.45 5.75,-16.14 5.34,-20.88 -0.42,-4.51 -3.18,-8.83 -8.57,-8.36 m -85.71,5.76 c -0.08,-0.86 -0.31,-1.06 -0.53,-1.04 -0.21,0.02 -0.41,0.25 -0.63,0.27 -0.86,0.08 -3.57,1.4 -5.47,2 -2.1,0.84 -3.8,1.2 -5.56,3.53 -2.54,3.26 -2.22,1.93 -4.03,3.61 -1.56,2.09 -0.51,1.57 -2.52,3.48 -1.59,1.66 -1.42,1.21 -2.91,3.95 -2.09,3.44 -2.89,4.16 -5.02,7.17 -1.26,2.93 -3.84,5.76 -4.28,8.19 -0.85,2.68 -3.73,7.06 -3.29,12.01 0.34,3.88 3.6,6.42 8.34,6 4.96,-0.43 7.51,-3.48 9.4,-4.3 2.12,-0.62 3.77,-1.63 5.32,-3.72 1.63,-1.23 1.99,-2.13 4.42,-4.08 2.69,-1.54 3.53,-1.83 6.11,-4.66 2.34,-3.03 3.68,-5.1 4.84,-6.72 1.41,-1.21 4.67,-3.67 5.52,-3.96 0,0 -1.24,3.15 -0.74,8.97 0.36,4.1 1.9,6.78 3.79,8.57 2.6,2.38 4.18,3.11 6.86,3.96 2.68,0.85 3.97,0.74 6.34,0.53 2.8,-0.25 5.63,-2.66 8.38,-3.56 2.96,-0.91 4.16,-2.1 6.63,-3.62 2.28,-1.29 2.38,-2.6 3.65,-2.93 1.06,-0.31 3.1,-1.79 5.24,-4.59 2.06,-1.27 3.2,-3.1 4.23,-3.84 0.8,-0.72 1.63,-1.23 1.57,-1.88 -0.06,-0.65 -0.52,-1.04 -1.17,-0.98 -0.21,0.02 -0.63,0.27 -0.82,0.51 -1.22,0.98 -3.06,2.22 -4.24,3.63 -0.73,1.58 -3.38,3.55 -4.62,4.31 -1.22,0.98 -3.51,2.04 -3.63,3.14 -0.57,0.92 -1.2,1.19 -1.83,1.46 -0.21,0.02 -3.98,1.65 -7.53,3.26 -2.9,1.56 -6.35,1.86 -7,1.92 -1.08,0.09 -3.89,-2.27 -4.68,-6.32 -0.33,-1.27 -0.42,-2.35 -0.52,-3.43 -0.23,-2.59 0,-4.99 0.01,-7.38 0.15,-3.27 0.74,-3.97 0.9,-4.64 0.32,-1.33 -0.19,-2.15 1.37,-4.25 1.14,-1.84 0.71,-1.8 2.03,-4.09 1.79,-1.89 1.87,-3.42 1.82,-4.07 -0.11,-1.29 -1.44,-1.61 -2.52,-1.52 -1.08,0.1 -2.04,1.48 -3.93,2.3 -1.47,0.56 -3.71,2.28 -5.46,4.6 -1.73,2.54 -1.21,3.58 -3.27,4.85 -1.45,0.78 -5.66,4.84 -7.62,7.18 -1.99,2.13 -3.34,3.98 -4.51,5.61 -1.4,1.43 -3.32,4.2 -4.93,5.64 -1.63,1.23 -5.36,3.29 -7.15,5.18 -1.61,1.44 -3.3,2.03 -5.56,3.53 -2.28,1.28 -2.92,1.34 -4.22,1.46 -1.51,0.13 -2.21,-0.46 -2.4,-2.61 -0.13,-1.51 2.86,-6.98 4.52,-10.38 1.66,-3.4 3.9,-5.12 4.51,-8 0.24,-2.19 1.32,-2.29 2.48,-3.91 0.96,-1.39 2.91,-3.95 3.01,-5.26 0.51,-1.57 0.86,-0.08 3.17,-3.54 2.54,-3.26 2.11,-3.22 4.25,-6.02 2.16,-2.76 4.03,-3.79 3.88,-5.52 m -65.61,27.02 c 1.42,-3.6 2.96,-5.9 4.17,-9.49 0.75,-1.37 2.03,-4.09 2.88,-6.77 1.09,-2.48 2.91,-3.95 3.37,-6.16 1.16,-1.62 1.89,-3.21 3.03,-5.04 1.12,-2.05 4.76,-10.19 6.92,-12.77 1.91,-2.99 4.84,-6.72 4.98,-7.6 0.3,-1.55 2.01,-4.3 3.39,-5.94 1.14,-1.84 2.91,-3.95 3.86,-5.55 1.2,-1.19 3.45,-5.3 5.63,-7.66 1.79,-1.89 1.7,-2.97 3.13,-3.96 0.75,-1.37 1.77,-2.11 3.54,-4.22 1.36,-1.86 5.37,-5.68 7.09,-5.83 2.15,-0.19 2.72,1.28 2.91,3.44 0.17,1.94 -1.07,5.09 -1.32,7.28 -0.48,2 -0.15,3.27 -1.76,4.71 -1.77,2.11 -5.22,9.8 -6.37,11.63 -0.69,2.01 -1.85,3.64 -3.19,5.71 -1.38,1.64 -1.99,2.13 -3.13,3.97 -1.4,1.42 -2.87,4.38 -4.66,6.27 -1.79,1.89 -3.88,5.33 -4.7,5.84 -4.06,5.78 -9.44,11.25 -10.6,12.87 -1.95,2.56 -5.8,5.72 -6.37,6.64 -0.55,1.13 -1.79,1.89 -3.17,3.53 -1.79,1.89 -3.42,3.12 -4.6,4.53 -1.18,1.41 -4.4,4.3 -5.03,4.57 m -1.45,5.78 c 0,0 2.56,-3.05 4.15,-4.71 1.41,-1.21 2.97,-3.3 4.01,-3.83 1.04,-0.52 1.55,-2.09 2.99,-3.08 0.96,-1.39 2.58,-2.83 3.95,-4.47 1.61,-1.44 7.27,-6.28 8,-7.87 0.69,-2.01 1.55,-2.09 3.38,-3.55 1.57,-1.88 3.58,-3.79 5.9,-7.03 2.14,-2.79 2.66,-4.36 3.89,-5.12 0.81,-0.72 1.14,-1.84 2.54,-3.26 0.93,-1.82 2.12,-3.01 3.11,-4.18 0.73,-1.58 0.91,-2.03 2.89,-4.16 1.34,-2.07 5.57,-8.31 6.44,-10.77 0.42,-2.64 2.07,-3.65 3.6,-5.96 0.93,-1.82 2.62,-4.79 3.45,-7.69 1.09,-2.48 2.22,-6.93 1.93,-10.16 -0.26,-3.02 -2.14,-4.59 -6.02,-4.25 -3.23,0.28 -8.47,2.48 -10.02,4.57 -1.52,2.52 -4.24,3.63 -5.44,4.82 -1.41,1.21 -5.42,5.04 -6.76,7.11 -1.54,2.31 -4.07,5.57 -4.86,6.51 -0.98,1.17 -2.3,3.46 -4.31,5.37 -1.73,2.54 -4.86,6.51 -6.93,10.16 -1.87,3.42 -3,5.47 -5.71,9.19 -2.3,3.46 -2.33,5.63 -3.28,7.24 -0.91,2.03 -3.86,5.55 -7.13,12.79 -3.28,7.24 -5.22,9.79 -6.08,12.48 -1.5,2.74 -2.23,4.32 -3.14,6.36 -0.85,2.68 -3.86,12.93 -3.47,17.46 0.38,4.31 1.5,7.25 3.12,8.41 2.05,1.12 4.22,3.54 7.24,3.28 3.45,-0.3 6.64,-1.01 8.92,-2.3 1.87,-1.03 5.11,-3.7 6.95,-4.95 1.61,-1.44 2.45,-1.73 3.89,-2.73 1.43,-1 3.87,-2.95 6.13,-4.45 2.04,-1.48 2.38,-2.6 3.44,-2.91 0.84,-0.29 3.32,-1.81 5.46,-4.6 1.85,-1.25 3.2,-3.1 4.22,-3.84 0.59,-0.7 1.41,-1.21 1.36,-1.86 -0.06,-0.65 -0.52,-1.04 -1.17,-0.98 -0.22,0.02 -0.41,0.25 -0.82,0.51 -1,0.96 -2.85,2.2 -3.81,3.59 -1.16,1.62 -3.6,3.57 -5.05,4.35 -1,0.96 -3.3,2.03 -3.42,3.12 -0.57,0.92 -1.2,1.19 -1.83,1.46 -0.65,0.06 -4.77,2.59 -6.58,4.27 -1.81,1.68 -6.11,4.66 -7.54,5.65 -1.65,1.01 -3.71,2.28 -5.65,2.45 -1.72,0.15 -4.01,-1.17 -4.35,-5.05 -0.34,-3.88 -0.51,-5.82 -0.05,-8.03 0.21,-2.87 2.46,-9.36 2.46,-9.36"
   clip-path="url(#SVGID_00000160872546426101731910000000106931866384065692_)"
   id="path637" />
</g>
<text
   id="text655"
   x="81.17955"
   y="31.366354"><tspan
     x="81.17955"
     y="31.366354"
     class="st1 st2 st3 st4"
     id="tspan641">T</tspan><tspan
     x="107.54955"
     y="31.366354"
     class="st1 st2 st3 st4"
     id="tspan643">e</tspan><tspan
     x="129.77956"
     y="31.366354"
     class="st1 st2 st3 st5"
     id="tspan645">h</tspan><tspan
     x="156.06953"
     y="31.366354"
     class="st1 st2 st3 st6"
     id="tspan647">o</tspan><tspan
     x="177.10954"
     y="31.366354"
     class="st1 st2 st3"
     id="tspan649">k</tspan><tspan
     x="205.34953"
     y="31.366354"
     class="st1 st2 st3"
     id="tspan651">a</tspan><tspan
     x="228.46953"
     y="31.366354"
     class="st1 st2 st3"
     id="tspan653">s</tspan></text>
<text
   id="text661"
   x="116.77765"
   y="58.972855"><tspan
     x="116.77765"
     y="58.972855"
     class="st7 st2 st8"
     id="tspan657">j</tspan><tspan
     x="126.80763"
     y="58.972855"
     class="st7 st2 st8"
     id="tspan659">a</tspan></text>
</svg>
