<svg xmlns="http://www.w3.org/2000/svg" xml:space="preserve" id="Layer_1" x="0" y="0" version="1.1" viewBox="0 0 595.28 841.89">
  <pattern id="Polka_Dot_Pattern" width="69" height="69" y="841.89" overflow="visible" patternUnits="userSpaceOnUse" viewBox="2.12 -70.9 69 69">
    <path fill="none" d="M2.12-70.9h69v69h-69z"/>
    <path fill="#f7bc60" d="M2.12-70.9h69v69h-69z"/>
    <path d="M61.77-71.65c.02.07.01.13-.03.19-.05.1-.11.06-.17.13-.05.06-.1.28-.08.36-.17.06-.01.23-.02.35 0 .05-.04.11-.04.16-.01.12.02.27.07.37.1.2.27.41.44.54.19.15.36.57.61.63.18.04.38-.1.54-.14.18-.04.4.01.57-.05.22-.08.13-.34.29-.45.1-.07.29-.01.41-.05.2-.07.34-.26.38-.46.02-.08.01-.14.04-.22.04-.1.11-.16.09-.29-.01-.06-.05-.12-.06-.19-.02-.11 0-.22 0-.34 0-.2.02-.38-.08-.55-.38-.69-1.24-.93-1.97-.79-.18.03-.29.13-.44.21-.17.09-.14.17-.32.22-.08.03-.22.12-.21.22 0 .12 0 .05.01.17-.02.01-.02 0-.03-.03M54.11-71.65c.02.07.01.13-.03.19-.05.1-.11.06-.17.13-.05.06-.1.28-.08.36-.17.06-.01.23-.02.35 0 .05-.04.11-.04.16-.01.12.02.27.07.37.1.2.27.41.44.54.19.15.36.57.61.63.18.04.38-.1.54-.14.18-.04.4.01.57-.05.22-.08.13-.34.29-.45.1-.07.29-.01.41-.05.2-.07.34-.26.38-.46.02-.08.01-.14.04-.22.04-.1.11-.16.09-.29-.01-.06-.05-.12-.06-.19-.02-.11 0-.22 0-.34 0-.2.02-.38-.08-.55-.38-.69-1.24-.93-1.97-.79-.18.03-.29.13-.44.21-.17.09-.14.17-.32.22-.08.03-.22.12-.21.22 0 .12 0 .05.01.17-.02.01-.02 0-.03-.03M46.44-71.65c.02.07.01.13-.03.19-.05.1-.11.06-.17.13-.05.06-.1.28-.08.36-.17.06-.01.23-.02.35 0 .05-.04.11-.04.16-.01.12.02.27.07.37.1.2.27.41.44.54.19.15.36.57.61.63.18.04.38-.1.54-.14.18-.04.4.01.57-.05.22-.08.13-.34.29-.45.1-.07.29-.01.41-.05.2-.07.34-.26.38-.46.02-.08.01-.14.04-.22.04-.1.11-.16.09-.29-.01-.06-.05-.12-.06-.19-.02-.11 0-.22 0-.34 0-.2.02-.38-.08-.55-.38-.69-1.24-.93-1.97-.79-.18.03-.29.13-.44.21-.17.09-.14.17-.32.22-.08.03-.22.12-.21.22 0 .12 0 .05.01.17-.02.01-.02 0-.03-.03M38.77-71.65c.02.07.01.13-.03.19-.05.1-.11.06-.17.13-.05.06-.1.28-.08.36-.17.06-.01.23-.02.35 0 .05-.04.11-.04.16-.01.12.02.27.07.37.1.2.27.41.44.54.19.15.36.57.61.63.18.04.38-.1.54-.14.18-.04.4.01.57-.05.22-.08.13-.34.29-.45.1-.07.29-.01.41-.05.2-.07.34-.26.38-.46.02-.08.01-.14.04-.22.04-.1.11-.16.09-.29-.01-.06-.05-.12-.06-.19-.02-.11 0-.22 0-.34 0-.2.02-.38-.08-.55-.38-.69-1.24-.93-1.97-.79-.18.03-.29.13-.44.21-.17.09-.14.17-.32.22-.08.03-.22.12-.21.22 0 .12 0 .05.01.17-.02.01-.02 0-.03-.03M31.11-71.65c.02.07.01.13-.03.19-.05.1-.11.06-.16.13-.05.06-.1.28-.08.36-.17.06-.01.23-.02.35 0 .05-.04.11-.04.16-.01.12.02.27.07.37.1.2.27.41.43.54.19.15.36.57.61.63.18.04.38-.1.54-.14.18-.04.4.01.57-.05.22-.08.13-.34.29-.45.1-.07.29-.01.41-.05.2-.07.34-.26.38-.46.02-.08.01-.14.04-.22.04-.1.11-.16.09-.29-.01-.06-.05-.12-.06-.19-.02-.11 0-.22 0-.34 0-.2.02-.38-.08-.55-.38-.69-1.24-.93-1.97-.79-.18.03-.29.13-.44.21-.17.09-.14.17-.32.22-.08.03-.22.12-.21.22 0 .12 0 .05.01.17-.02.01-.02 0-.03-.03M23.44-71.65c.02.07.01.13-.03.19-.05.1-.11.06-.17.13-.05.06-.1.28-.08.36-.17.06-.01.23-.02.35 0 .05-.04.11-.04.16-.01.12.02.27.07.37.1.2.27.41.43.54.19.15.36.57.61.63.18.04.38-.1.54-.14.18-.04.4.01.57-.05.22-.08.13-.34.29-.45.1-.07.29-.01.41-.05.2-.07.34-.26.38-.46.02-.08.01-.14.04-.22.04-.1.11-.16.09-.29-.01-.06-.05-.12-.06-.19-.02-.11 0-.22 0-.34 0-.2.02-.38-.08-.55-.38-.69-1.24-.93-1.97-.79-.18.03-.29.13-.44.21-.17.09-.14.17-.32.22-.08.03-.22.12-.21.22 0 .12 0 .05.01.17-.02.01-.02 0-.03-.03M15.77-71.65c.02.07.01.13-.03.19-.05.1-.11.06-.17.13-.05.06-.1.28-.08.36-.17.06-.01.23-.02.35 0 .05-.04.11-.04.16-.01.12.02.27.07.37.1.2.27.41.44.54.19.15.36.57.61.63.18.04.38-.1.54-.14.18-.04.4.01.57-.05.22-.08.13-.34.29-.45.1-.07.29-.01.41-.05.2-.07.34-.26.38-.46.02-.08.01-.14.04-.22.04-.1.11-.16.09-.29-.01-.06-.05-.12-.06-.19-.02-.11 0-.22 0-.34 0-.2.02-.38-.08-.55-.38-.69-1.24-.93-1.97-.79-.18.03-.29.13-.44.21-.17.09-.14.17-.32.22-.08.03-.22.12-.21.22 0 .12 0 .05.01.17-.02.01-.02 0-.03-.03M8.11-71.65c.02.07.01.13-.03.19-.05.1-.11.06-.17.13-.05.06-.1.28-.08.36-.17.06-.01.23-.02.35 0 .05-.04.11-.04.16-.01.12.02.27.07.37.1.2.27.41.44.54.19.15.36.57.61.63.18.04.38-.1.54-.14.18-.04.4.01.57-.05.22-.08.13-.34.29-.45.1-.07.29-.01.41-.05.2-.07.34-.26.38-.46.02-.08.01-.14.04-.22.04-.1.11-.16.09-.29-.01-.06-.05-.12-.06-.19-.02-.11 0-.22 0-.34 0-.2.02-.38-.08-.55-.38-.69-1.24-.93-1.97-.79-.18.03-.29.13-.44.21-.17.09-.14.17-.32.22-.08.03-.22.12-.21.22 0 .12 0 .05.01.17-.02.01-.02 0-.03-.03M.44-71.65c.02.07.01.13-.03.19-.05.1-.11.06-.17.13-.05.06-.1.28-.08.36-.16.05 0 .22-.01.35 0 .05-.04.11-.04.16-.01.12.02.27.07.37.1.2.27.41.44.54.19.15.36.57.61.63.18.04.38-.1.54-.14.18-.04.4.01.57-.05.22-.08.13-.34.29-.45.1-.07.29-.01.41-.05.2-.07.34-.26.38-.46.02-.08.01-.14.04-.22.04-.1.11-.16.09-.29-.01-.06-.05-.12-.06-.19-.02-.11 0-.22 0-.34 0-.2.02-.38-.08-.55-.38-.69-1.24-.93-1.97-.79-.18.03-.29.13-.44.21-.17.09-.14.17-.32.22-.08.03-.22.12-.21.22 0 .12 0 .05.01.17-.02.01-.02 0-.03-.03" class="st2"/>
    <g>
      <path d="M69.44-71.65c.02.07.01.13-.03.19-.05.1-.11.06-.17.13-.05.06-.1.28-.08.36-.17.06-.01.23-.02.35 0 .05-.04.11-.04.16-.01.12.02.27.07.37.1.2.27.41.43.54.19.15.36.57.61.63.18.04.38-.1.54-.14.18-.04.4.01.57-.05.22-.08.13-.34.29-.45.1-.07.29-.01.41-.05.2-.07.34-.26.38-.46.02-.08.01-.14.04-.22.04-.1.11-.16.09-.29-.01-.06-.05-.12-.06-.19-.02-.11 0-.22 0-.34 0-.2.02-.38-.08-.55-.38-.69-1.24-.93-1.97-.79-.18.03-.29.13-.44.21-.17.09-.14.17-.32.22-.08.03-.22.12-.21.22 0 .12 0 .05.01.17-.02.01-.02 0-.03-.03" class="st2"/>
    </g>
    <path d="M.5-71.65c.02.07.01.13-.03.19-.05.1-.11.06-.17.13-.05.06-.1.28-.08.36-.17.06-.01.23-.02.35 0 .05-.04.11-.04.16-.01.12.02.27.07.37.1.2.27.41.44.54.19.15.36.57.61.63.18.04.38-.1.54-.14.18-.04.4.01.57-.05.22-.08.13-.34.29-.45.1-.07.29-.01.41-.05.2-.07.34-.26.38-.46.02-.08.01-.14.04-.22.04-.1.11-.16.09-.29-.01-.06-.05-.12-.06-.19-.02-.11 0-.22 0-.34 0-.2.02-.38-.08-.55-.38-.69-1.24-.93-1.97-.79-.18.03-.29.13-.44.21-.17.09-.14.17-.32.22-.08.03-.22.12-.21.22 0 .12 0 .05.01.17-.02.01-.02 0-.03-.03" class="st2"/>
    <g>
      <path d="M69.44-64c.02.07.01.13-.03.19-.05.1-.11.06-.17.13-.05.06-.1.28-.08.36-.17.06-.01.23-.02.35 0 .05-.04.11-.04.16-.01.12.02.27.07.37.1.2.27.41.43.54.19.15.36.57.61.63.18.04.38-.1.54-.14.18-.04.4.01.57-.05.22-.08.13-.34.29-.45.1-.07.29-.01.41-.05.2-.07.34-.26.38-.46.02-.08.01-.14.04-.22.04-.1.11-.16.09-.29-.01-.06-.05-.12-.06-.19-.02-.11 0-.22 0-.34 0-.2.02-.38-.08-.55-.38-.69-1.24-.93-1.97-.79-.18.03-.29.13-.44.21-.17.09-.14.17-.32.22-.08.03-.22.12-.21.22 0 .12 0 .05.01.17-.02.01-.02 0-.03-.03M61.78-64c.02.07.01.13-.03.19-.05.1-.11.06-.17.13-.05.06-.1.28-.08.36-.17.06-.01.23-.02.35 0 .05-.04.11-.04.16-.01.12.02.27.07.37.1.2.27.41.44.54.19.15.36.57.61.63.18.04.38-.1.54-.14.18-.04.4.01.57-.05.22-.08.13-.34.29-.45.1-.07.29-.01.41-.05.2-.07.34-.26.38-.46.02-.08.01-.14.04-.22.04-.1.11-.16.09-.29-.01-.06-.05-.12-.06-.19-.02-.11 0-.22 0-.34 0-.2.02-.38-.08-.55-.38-.69-1.24-.93-1.97-.79-.18.03-.29.13-.44.21-.17.09-.14.17-.32.22-.08.03-.22.12-.21.22 0 .12 0 .05.01.17-.02.01-.02 0-.03-.03M54.12-64c.02.07.01.13-.03.19-.05.1-.11.06-.17.13-.05.06-.1.28-.08.36-.17.06-.01.23-.02.35 0 .05-.04.11-.04.16-.01.12.02.27.07.37.1.2.27.41.44.54.19.15.36.57.61.63.18.04.38-.1.54-.14.18-.04.4.01.57-.05.22-.08.13-.34.29-.45.1-.07.29-.01.41-.05.2-.07.34-.26.38-.46.02-.08.01-.14.04-.22.04-.1.11-.16.09-.29-.01-.06-.05-.12-.06-.19-.02-.11 0-.22 0-.34 0-.2.02-.38-.08-.55-.38-.69-1.24-.93-1.97-.79-.18.03-.29.13-.44.21-.17.09-.14.17-.32.22-.08.03-.22.12-.21.22 0 .12 0 .05.01.17-.02.01-.02 0-.03-.03M46.46-64c.02.07.01.13-.03.19-.05.1-.11.06-.16.13-.05.06-.1.28-.08.36-.17.06-.01.23-.02.35 0 .05-.04.11-.05.16-.01.12.02.27.07.37.1.2.27.41.44.54.19.15.36.57.61.63.18.04.38-.1.54-.14.18-.04.4.01.57-.05.22-.08.13-.34.29-.45.1-.07.29-.01.41-.05.2-.07.34-.26.38-.46.02-.08.01-.14.04-.22.04-.1.11-.16.09-.29-.01-.06-.05-.12-.06-.19-.02-.11 0-.22 0-.34 0-.2.02-.38-.08-.55-.38-.69-1.24-.93-1.97-.79-.18.03-.29.13-.44.21-.17.09-.14.17-.32.22-.08.03-.22.12-.21.22 0 .12 0 .05.01.17-.02.01-.02 0-.03-.03M38.8-64c.02.07.01.13-.03.19-.05.1-.11.06-.17.13-.05.06-.1.28-.08.36-.17.06-.01.23-.02.35 0 .05-.04.11-.04.16-.01.12.02.27.07.37.1.2.27.41.44.54.19.15.36.57.61.63.18.04.38-.1.54-.14.18-.04.4.01.57-.05.22-.08.13-.34.29-.45.1-.07.29-.01.41-.05.2-.07.34-.26.38-.46.02-.08.01-.14.04-.22.04-.1.11-.16.09-.29-.01-.06-.05-.12-.06-.19-.02-.11 0-.22 0-.34 0-.2.02-.38-.08-.55-.38-.69-1.24-.93-1.97-.79-.18.03-.29.13-.44.21-.17.09-.14.17-.32.22-.08.03-.22.12-.21.22 0 .12 0 .05.01.17-.02.01-.02 0-.03-.03M31.14-64c.02.07.01.13-.03.19-.05.1-.11.06-.16.13-.05.06-.1.28-.08.36-.17.06-.01.23-.02.35 0 .05-.04.11-.05.16-.01.12.02.27.07.37.1.2.27.41.44.54.19.15.36.57.61.63.18.04.38-.1.54-.14.18-.04.4.01.57-.05.22-.08.13-.34.29-.45.1-.07.29-.01.41-.05.2-.07.34-.26.38-.46.02-.08.01-.14.04-.22.04-.1.11-.16.09-.29-.01-.06-.05-.12-.06-.19-.02-.11 0-.22 0-.34 0-.2.02-.38-.08-.55-.38-.69-1.24-.93-1.97-.79-.18.03-.29.13-.44.21-.17.09-.14.17-.32.22-.08.03-.22.12-.21.22 0 .12 0 .05.01.17-.02.01-.02 0-.03-.03M23.48-64c.02.07.01.13-.03.19-.05.1-.11.06-.17.13-.05.06-.1.28-.08.36-.17.06-.01.23-.02.35 0 .05-.04.11-.04.16-.01.12.02.27.07.37.1.2.27.41.44.54.19.15.36.57.61.63.18.04.38-.1.54-.14.18-.04.4.01.57-.05.22-.08.13-.34.29-.45.1-.07.29-.01.41-.05.2-.07.34-.26.38-.46.02-.08.01-.14.04-.22.04-.1.11-.16.09-.29-.01-.06-.05-.12-.06-.19-.02-.11 0-.22 0-.34 0-.2.02-.38-.08-.55-.38-.69-1.24-.93-1.97-.79-.18.03-.29.13-.44.21-.17.09-.14.17-.32.22-.08.03-.22.12-.21.22 0 .12 0 .05.01.17-.02.01-.02 0-.03-.03M15.82-64c.02.07.01.13-.03.19-.05.1-.11.06-.16.13-.05.06-.1.28-.08.36-.17.06-.01.23-.02.35 0 .05-.04.11-.05.16-.01.12.02.27.07.37.1.2.27.41.44.54.19.15.36.57.61.63.18.04.38-.1.54-.14.18-.04.4.01.57-.05.22-.08.13-.34.29-.45.1-.07.29-.01.41-.05.2-.07.34-.26.38-.46.02-.08.01-.14.04-.22.04-.1.11-.16.09-.29-.01-.06-.05-.12-.06-.19-.02-.11 0-.22 0-.34 0-.2.02-.38-.08-.55-.38-.69-1.24-.93-1.97-.79-.18.03-.29.13-.44.21-.17.09-.14.17-.32.22-.08.03-.22.12-.21.22 0 .12 0 .05.01.17-.02.01-.02 0-.03-.03M8.16-64c.02.07.01.13-.03.19-.05.1-.11.06-.17.13-.05.06-.1.28-.08.36-.17.06-.01.23-.02.35 0 .05-.04.11-.04.16-.01.12.02.27.07.37.1.2.27.41.44.54.19.15.36.57.61.63.18.04.38-.1.54-.14.18-.04.4.01.57-.05.22-.08.13-.34.29-.45.1-.07.29-.01.41-.05.2-.07.34-.26.38-.46.02-.08.01-.14.04-.22.04-.1.11-.16.09-.29-.01-.06-.05-.12-.06-.19-.02-.11 0-.22 0-.34 0-.2.02-.38-.08-.55-.38-.69-1.24-.93-1.97-.79-.18.03-.29.13-.44.21-.17.09-.14.17-.32.22-.08.03-.22.12-.21.22 0 .12 0 .05.01.17-.02.01-.02 0-.03-.03M.5-64c.02.07.01.13-.03.19-.05.1-.11.06-.17.13-.05.06-.1.28-.08.36-.17.06-.01.23-.02.35 0 .05-.04.11-.04.16-.01.12.02.27.07.37.1.2.27.41.44.54.19.15.36.57.61.63.18.04.38-.1.54-.14.18-.04.4.01.57-.05.22-.08.13-.34.29-.45.1-.07.29-.01.41-.05.2-.07.34-.26.38-.46.02-.08.01-.14.04-.22.04-.1.11-.16.09-.29-.02-.07-.06-.12-.07-.19-.02-.11 0-.22 0-.34 0-.2.02-.38-.08-.55-.38-.69-1.24-.93-1.97-.79-.18.03-.29.13-.44.21-.17.09-.14.17-.32.22-.08.03-.22.12-.21.22 0 .12 0 .05.01.17-.02.01-.02 0-.03-.03" class="st2"/>
      <g>
        <path d="M69.44-56.35c.02.07.01.13-.03.19-.05.1-.11.06-.17.13-.05.06-.1.28-.08.36-.17.06-.01.23-.02.35 0 .05-.04.11-.04.16-.01.12.02.27.07.37.1.2.27.41.43.54.19.15.36.57.61.63.18.04.38-.1.54-.14.18-.04.4.01.57-.05.22-.08.13-.34.29-.45.1-.07.29-.01.41-.05.2-.07.34-.26.38-.46.02-.08.01-.14.04-.22.04-.1.11-.16.09-.29-.01-.06-.05-.12-.06-.19-.02-.11 0-.22 0-.34 0-.2.02-.38-.08-.55-.38-.69-1.24-.93-1.97-.79-.18.03-.29.13-.44.21-.17.09-.14.17-.32.22-.08.03-.22.12-.21.22 0 .12 0 .05.01.17-.02.01-.02 0-.03-.03M61.78-56.35c.02.07.01.13-.03.19-.05.1-.11.06-.17.13-.05.06-.1.28-.08.36-.17.06-.01.23-.02.35 0 .05-.04.11-.04.16-.01.12.02.27.07.37.1.2.27.41.44.54.19.15.36.57.61.63.18.04.38-.1.54-.14.18-.04.4.01.57-.05.22-.08.13-.34.29-.45.1-.07.29-.01.41-.05.2-.07.34-.26.38-.46.02-.08.01-.14.04-.22.04-.1.11-.16.09-.29-.01-.06-.05-.12-.06-.19-.02-.11 0-.22 0-.34 0-.2.02-.38-.08-.55-.38-.69-1.24-.93-1.97-.79-.18.03-.29.13-.44.21-.17.09-.14.17-.32.22-.08.03-.22.12-.21.22 0 .12 0 .05.01.17-.02.01-.02 0-.03-.03M54.12-56.35c.02.07.01.13-.03.19-.05.1-.11.06-.17.13-.05.06-.1.28-.08.36-.17.06-.01.23-.02.35 0 .05-.04.11-.04.16-.01.12.02.27.07.37.1.2.27.41.44.54.19.15.36.57.61.63.18.04.38-.1.54-.14.18-.04.4.01.57-.05.22-.08.13-.34.29-.45.1-.07.29-.01.41-.05.2-.07.34-.26.38-.46.02-.08.01-.14.04-.22.04-.1.11-.16.09-.29-.01-.06-.05-.12-.06-.19-.02-.11 0-.22 0-.34 0-.2.02-.38-.08-.55-.38-.69-1.24-.93-1.97-.79-.18.03-.29.13-.44.21-.17.09-.14.17-.32.22-.08.03-.22.12-.21.22 0 .12 0 .05.01.17-.02.01-.02 0-.03-.03M46.46-56.35c.02.07.01.13-.03.19-.05.1-.11.06-.16.13-.05.06-.1.28-.08.36-.17.06-.01.23-.02.35 0 .05-.04.11-.05.16-.01.12.02.27.07.37.1.2.27.41.44.54.19.15.36.57.61.63.18.04.38-.1.54-.14.18-.04.4.01.57-.05.22-.08.13-.34.29-.45.1-.07.29-.01.41-.05.2-.07.34-.26.38-.46.02-.08.01-.14.04-.22.04-.1.11-.16.09-.29-.01-.06-.05-.12-.06-.19-.02-.11 0-.22 0-.34 0-.2.02-.38-.08-.55-.38-.69-1.24-.93-1.97-.79-.18.03-.29.13-.44.21-.17.09-.14.17-.32.22-.08.03-.22.12-.21.22 0 .12 0 .05.01.17-.02.01-.02 0-.03-.03M38.8-56.35c.02.07.01.13-.03.19-.05.1-.11.06-.17.13-.05.06-.1.28-.08.36-.17.06-.01.23-.02.35 0 .05-.04.11-.04.16-.01.12.02.27.07.37.1.2.27.41.44.54.19.15.36.57.61.63.18.04.38-.1.54-.14.18-.04.4.01.57-.05.22-.08.13-.34.29-.45.1-.07.29-.01.41-.05.2-.07.34-.26.38-.46.02-.08.01-.14.04-.22.04-.1.11-.16.09-.29-.01-.06-.05-.12-.06-.19-.02-.11 0-.22 0-.34 0-.2.02-.38-.08-.55-.38-.69-1.24-.93-1.97-.79-.18.03-.29.13-.44.21-.17.09-.14.17-.32.22-.08.03-.22.12-.21.22 0 .12 0 .05.01.17-.02.01-.02 0-.03-.03M31.14-56.35c.02.07.01.13-.03.19-.05.1-.11.06-.16.13-.05.06-.1.28-.08.36-.17.06-.01.23-.02.35 0 .05-.04.11-.05.16-.01.12.02.27.07.37.1.2.27.41.44.54.19.15.36.57.61.63.18.04.38-.1.54-.14.18-.04.4.01.57-.05.22-.08.13-.34.29-.45.1-.07.29-.01.41-.05.2-.07.34-.26.38-.46.02-.08.01-.14.04-.22.04-.1.11-.16.09-.29-.01-.06-.05-.12-.06-.19-.02-.11 0-.22 0-.34 0-.2.02-.38-.08-.55-.38-.69-1.24-.93-1.97-.79-.18.03-.29.13-.44.21-.17.09-.14.17-.32.22-.08.03-.22.12-.21.22 0 .12 0 .05.01.17-.02.01-.02 0-.03-.03M23.48-56.35c.02.07.01.13-.03.19-.05.1-.11.06-.17.13-.05.06-.1.28-.08.36-.17.06-.01.23-.02.35 0 .05-.04.11-.04.16-.01.12.02.27.07.37.1.2.27.41.44.54.19.15.36.57.61.63.18.04.38-.1.54-.14.18-.04.4.01.57-.05.22-.08.13-.34.29-.45.1-.07.29-.01.41-.05.2-.07.34-.26.38-.46.02-.08.01-.14.04-.22.04-.1.11-.16.09-.29-.01-.06-.05-.12-.06-.19-.02-.11 0-.22 0-.34 0-.2.02-.38-.08-.55-.38-.69-1.24-.93-1.97-.79-.18.03-.29.13-.44.21-.17.09-.14.17-.32.22-.08.03-.22.12-.21.22 0 .12 0 .05.01.17-.02.01-.02 0-.03-.03M15.82-56.35c.02.07.01.13-.03.19-.05.1-.11.06-.16.13-.05.06-.1.28-.08.36-.17.06-.01.23-.02.35 0 .05-.04.11-.05.16-.01.12.02.27.07.37.1.2.27.41.44.54.19.15.36.57.61.63.18.04.38-.1.54-.14.18-.04.4.01.57-.05.22-.08.13-.34.29-.45.1-.07.29-.01.41-.05.2-.07.34-.26.38-.46.02-.08.01-.14.04-.22.04-.1.11-.16.09-.29-.01-.06-.05-.12-.06-.19-.02-.11 0-.22 0-.34 0-.2.02-.38-.08-.55-.38-.69-1.24-.93-1.97-.79-.18.03-.29.13-.44.21-.17.09-.14.17-.32.22-.08.03-.22.12-.21.22 0 .12 0 .05.01.17-.02.01-.02 0-.03-.03M8.16-56.35c.02.07.01.13-.03.19-.05.1-.11.06-.17.13-.05.06-.1.28-.08.36-.17.06-.01.23-.02.35 0 .05-.04.11-.04.16-.01.12.02.27.07.37.1.2.27.41.44.54.19.15.36.57.61.63.18.04.38-.1.54-.14.18-.04.4.01.57-.05.22-.08.13-.34.29-.45.1-.07.29-.01.41-.05.2-.07.34-.26.38-.46.02-.08.01-.14.04-.22.04-.1.11-.16.09-.29-.01-.06-.05-.12-.06-.19-.02-.11 0-.22 0-.34 0-.2.02-.38-.08-.55-.38-.69-1.24-.93-1.97-.79-.18.03-.29.13-.44.21-.17.09-.14.17-.32.22-.08.03-.22.12-.21.22 0 .12 0 .05.01.17-.02.01-.02 0-.03-.03M.5-56.35c.02.07.01.13-.03.19-.05.1-.11.06-.17.13-.05.06-.1.28-.08.36-.17.06-.01.23-.02.35 0 .05-.04.11-.04.16-.01.12.02.27.07.37.1.2.27.41.44.54.19.15.36.57.61.63.18.04.38-.1.54-.14.18-.04.4.01.57-.05.22-.08.13-.34.29-.45.1-.07.29-.01.41-.05.2-.07.34-.26.38-.46.02-.08.01-.14.04-.22.04-.1.11-.16.09-.29-.01-.06-.05-.12-.06-.19-.02-.11 0-.22 0-.34 0-.2.02-.38-.08-.55-.38-.69-1.24-.93-1.97-.79-.18.03-.29.13-.44.21-.17.09-.14.17-.32.22-.08.03-.22.12-.21.22 0 .12 0 .05.01.17-.02.01-.02 0-.03-.03" class="st2"/>
      </g>
      <g>
        <path d="M69.44-48.7c.02.07.01.13-.03.19-.05.1-.11.06-.17.13-.05.06-.1.28-.08.36-.17.06-.01.23-.02.35 0 .05-.04.11-.04.16-.01.12.02.27.07.37.1.2.27.41.43.54.19.15.36.57.61.63.18.04.38-.1.54-.14.18-.04.4.01.57-.05.22-.08.13-.34.29-.45.1-.07.29-.01.41-.05.2-.07.34-.26.38-.46.02-.08.01-.14.04-.22.04-.1.11-.16.09-.29-.01-.06-.05-.12-.06-.19-.02-.11 0-.22 0-.34 0-.2.02-.38-.08-.55-.38-.69-1.24-.93-1.97-.79-.18.03-.29.13-.44.21-.17.09-.14.17-.32.22-.08.03-.22.12-.21.22 0 .12 0 .05.01.17-.02.01-.02 0-.03-.03M61.78-48.7c.02.07.01.13-.03.19-.05.1-.11.06-.17.13-.05.06-.1.28-.08.36-.17.06-.01.23-.02.35 0 .05-.04.11-.04.16-.01.12.02.27.07.37.1.2.27.41.44.54.19.15.36.57.61.63.18.04.38-.1.54-.14.18-.04.4.01.57-.05.22-.08.13-.34.29-.45.1-.07.29-.01.41-.05.2-.07.34-.26.38-.46.02-.08.01-.14.04-.22.04-.1.11-.16.09-.29-.01-.06-.05-.12-.06-.19-.02-.11 0-.22 0-.34 0-.2.02-.38-.08-.55-.38-.69-1.24-.93-1.97-.79-.18.03-.29.13-.44.21-.17.09-.14.17-.32.22-.08.03-.22.12-.21.22 0 .12 0 .05.01.17-.02.01-.02 0-.03-.03M54.12-48.7c.02.07.01.13-.03.19-.05.1-.11.06-.17.13-.05.06-.1.28-.08.36-.17.06-.01.23-.02.35 0 .05-.04.11-.04.16-.01.12.02.27.07.37.1.2.27.41.44.54.19.15.36.57.61.63.18.04.38-.1.54-.14.18-.04.4.01.57-.05.22-.08.13-.34.29-.45.1-.07.29-.01.41-.05.2-.07.34-.26.38-.46.02-.08.01-.14.04-.22.04-.1.11-.16.09-.29-.01-.06-.05-.12-.06-.19-.02-.11 0-.22 0-.34 0-.2.02-.38-.08-.55-.38-.69-1.24-.93-1.97-.79-.18.03-.29.13-.44.21-.17.09-.14.17-.32.22-.08.03-.22.12-.21.22 0 .12 0 .05.01.17-.02.01-.02 0-.03-.03M46.46-48.7c.02.07.01.13-.03.19-.05.1-.11.06-.16.13-.05.06-.1.28-.08.36-.17.06-.01.23-.02.35 0 .05-.04.11-.05.16-.01.12.02.27.07.37.1.2.27.41.44.54.19.15.36.57.61.63.18.04.38-.1.54-.14.18-.04.4.01.57-.05.22-.08.13-.34.29-.45.1-.07.29-.01.41-.05.2-.07.34-.26.38-.46.02-.08.01-.14.04-.22.04-.1.11-.16.09-.29-.01-.06-.05-.12-.06-.19-.02-.11 0-.22 0-.34 0-.2.02-.38-.08-.55-.38-.69-1.24-.93-1.97-.79-.18.03-.29.13-.44.21-.17.09-.14.17-.32.22-.08.03-.22.12-.21.22 0 .12 0 .05.01.17-.02.01-.02 0-.03-.03M38.8-48.7c.02.07.01.13-.03.19-.05.1-.11.06-.17.13-.05.06-.1.28-.08.36-.17.06-.01.23-.02.35 0 .05-.04.11-.04.16-.01.12.02.27.07.37.1.2.27.41.44.54.19.15.36.57.61.63.18.04.38-.1.54-.14.18-.04.4.01.57-.05.22-.08.13-.34.29-.45.1-.07.29-.01.41-.05.2-.07.34-.26.38-.46.02-.08.01-.14.04-.22.04-.1.11-.16.09-.29-.01-.06-.05-.12-.06-.19-.02-.11 0-.22 0-.34 0-.2.02-.38-.08-.55-.38-.69-1.24-.93-1.97-.79-.18.03-.29.13-.44.21-.17.09-.14.17-.32.22-.08.03-.22.12-.21.22 0 .12 0 .05.01.17-.02.01-.02 0-.03-.03M31.14-48.7c.02.07.01.13-.03.19-.05.1-.11.06-.16.13-.05.06-.1.28-.08.36-.17.06-.01.23-.02.35 0 .05-.04.11-.05.16-.01.12.02.27.07.37.1.2.27.41.44.54.19.15.36.57.61.63.18.04.38-.1.54-.14.18-.04.4.01.57-.05.22-.08.13-.34.29-.45.1-.07.29-.01.41-.05.2-.07.34-.26.38-.46.02-.08.01-.14.04-.22.04-.1.11-.16.09-.29-.01-.06-.05-.12-.06-.19-.02-.11 0-.22 0-.34 0-.2.02-.38-.08-.55-.38-.69-1.24-.93-1.97-.79-.18.03-.29.13-.44.21-.17.09-.14.17-.32.22-.08.03-.22.12-.21.22 0 .12 0 .05.01.17-.02.01-.02 0-.03-.03M23.48-48.7c.02.07.01.13-.03.19-.05.1-.11.06-.17.13-.05.06-.1.28-.08.36-.17.06-.01.23-.02.35 0 .05-.04.11-.04.16-.01.12.02.27.07.37.1.2.27.41.44.54.19.15.36.57.61.63.18.04.38-.1.54-.14.18-.04.4.01.57-.05.22-.08.13-.34.29-.45.1-.07.29-.01.41-.05.2-.07.34-.26.38-.46.02-.08.01-.14.04-.22.04-.1.11-.16.09-.29-.01-.06-.05-.12-.06-.19-.02-.11 0-.22 0-.34 0-.2.02-.38-.08-.55-.38-.69-1.24-.93-1.97-.79-.18.03-.29.13-.44.21-.17.09-.14.17-.32.22-.08.03-.22.12-.21.22 0 .12 0 .05.01.17-.02.01-.02 0-.03-.03M15.82-48.7c.02.07.01.13-.03.19-.05.1-.11.06-.16.13-.05.06-.1.28-.08.36-.17.06-.01.23-.02.35 0 .05-.04.11-.05.16-.01.12.02.27.07.37.1.2.27.41.44.54.19.15.36.57.61.63.18.04.38-.1.54-.14.18-.04.4.01.57-.05.22-.08.13-.34.29-.45.1-.07.29-.01.41-.05.2-.07.34-.26.38-.46.02-.08.01-.14.04-.22.04-.1.11-.16.09-.29-.01-.06-.05-.12-.06-.19-.02-.11 0-.22 0-.34 0-.2.02-.38-.08-.55-.38-.69-1.24-.93-1.97-.79-.18.03-.29.13-.44.21-.17.09-.14.17-.32.22-.08.03-.22.12-.21.22 0 .12 0 .05.01.17-.02.01-.02 0-.03-.03M8.16-48.7c.02.07.01.13-.03.19-.05.1-.11.06-.17.13-.05.06-.1.28-.08.36-.17.06-.01.23-.02.35 0 .05-.04.11-.04.16-.01.12.02.27.07.37.1.2.27.41.44.54.19.15.36.57.61.63.18.04.38-.1.54-.14.18-.04.4.01.57-.05.22-.08.13-.34.29-.45.1-.07.29-.01.41-.05.2-.07.34-.26.38-.46.02-.08.01-.14.04-.22.04-.1.11-.16.09-.29-.01-.06-.05-.12-.06-.19-.02-.11 0-.22 0-.34 0-.2.02-.38-.08-.55-.38-.69-1.24-.93-1.97-.79-.18.03-.29.13-.44.21-.17.09-.14.17-.32.22-.08.03-.22.12-.21.22 0 .12 0 .05.01.17-.02.01-.02 0-.03-.03M.5-48.7c.02.07.01.13-.03.19-.05.1-.11.06-.17.13-.05.06-.1.28-.08.36-.17.06-.01.23-.02.35 0 .05-.04.11-.04.16-.01.12.02.27.07.37.1.2.27.41.44.54.19.15.36.57.61.63.18.04.38-.1.54-.14.18-.04.4.01.57-.05.22-.08.13-.34.29-.45.1-.07.29-.01.41-.05.2-.07.34-.26.38-.46.02-.08.01-.14.04-.22.04-.1.11-.16.09-.29-.01-.06-.05-.12-.06-.19-.02-.11 0-.22 0-.34 0-.2.02-.38-.08-.55-.38-.69-1.24-.93-1.97-.79-.18.03-.29.13-.44.21-.17.09-.14.17-.32.22-.08.03-.22.12-.21.22 0 .12 0 .05.01.17-.02.01-.02 0-.03-.03" class="st2"/>
      </g>
      <g>
        <path d="M69.44-41.04c.02.07.01.13-.03.19-.05.1-.11.06-.17.13-.05.06-.1.28-.08.36-.17.06-.01.23-.02.35 0 .05-.04.11-.04.16-.01.12.02.27.07.37.1.2.27.41.43.54.19.15.36.57.61.63.18.04.38-.1.54-.14.18-.04.4.01.57-.05.22-.08.13-.34.29-.45.1-.07.29-.01.41-.05.2-.07.34-.26.38-.46.02-.08.01-.14.04-.22.04-.1.11-.16.09-.29-.01-.06-.05-.12-.06-.19-.02-.11 0-.22 0-.34 0-.2.02-.38-.08-.55-.38-.69-1.24-.93-1.97-.79-.18.03-.29.13-.44.21-.17.09-.14.17-.32.22-.08.03-.22.12-.21.22 0 .12 0 .05.01.17-.02.01-.02 0-.03-.03M61.78-41.04c.02.07.01.13-.03.19-.05.1-.11.06-.17.13-.05.06-.1.28-.08.36-.17.06-.01.23-.02.35 0 .05-.04.11-.04.16-.01.12.02.27.07.37.1.2.27.41.44.54.19.15.36.57.61.63.18.04.38-.1.54-.14.18-.04.4.01.57-.05.22-.08.13-.34.29-.45.1-.07.29-.01.41-.05.2-.07.34-.26.38-.46.02-.08.01-.14.04-.22.04-.1.11-.16.09-.29-.01-.06-.05-.12-.06-.19-.02-.11 0-.22 0-.34 0-.2.02-.38-.08-.55-.38-.69-1.24-.93-1.97-.79-.18.03-.29.13-.44.21-.17.09-.14.17-.32.22-.08.03-.22.12-.21.22 0 .12 0 .05.01.17-.02.01-.02 0-.03-.03M54.12-41.04c.02.07.01.13-.03.19-.05.1-.11.06-.17.13-.05.06-.1.28-.08.36-.17.06-.01.23-.02.35 0 .05-.04.11-.04.16-.01.12.02.27.07.37.1.2.27.41.44.54.19.15.36.57.61.63.18.04.38-.1.54-.14.18-.04.4.01.57-.05.22-.08.13-.34.29-.45.1-.07.29-.01.41-.05.2-.07.34-.26.38-.46.02-.08.01-.14.04-.22.04-.1.11-.16.09-.29-.01-.06-.05-.12-.06-.19-.02-.11 0-.22 0-.34 0-.2.02-.38-.08-.55-.38-.69-1.24-.93-1.97-.79-.18.03-.29.13-.44.21-.17.09-.14.17-.32.22-.08.03-.22.12-.21.22 0 .12 0 .05.01.17-.02.01-.02 0-.03-.03M46.46-41.04c.02.07.01.13-.03.19-.05.1-.11.06-.16.13-.05.06-.1.28-.08.36-.17.06-.01.23-.02.35 0 .05-.04.11-.05.16-.01.12.02.27.07.37.1.2.27.41.44.54.19.15.36.57.61.63.18.04.38-.1.54-.14.18-.04.4.01.57-.05.22-.08.13-.34.29-.45.1-.07.29-.01.41-.05.2-.07.34-.26.38-.46.02-.08.01-.14.04-.22.04-.1.11-.16.09-.29-.01-.06-.05-.12-.06-.19-.02-.11 0-.22 0-.34 0-.2.02-.38-.08-.55-.38-.69-1.24-.93-1.97-.79-.18.03-.29.13-.44.21-.17.09-.14.17-.32.22-.08.03-.22.12-.21.22 0 .12 0 .05.01.17-.02.01-.02 0-.03-.03M38.8-41.04c.02.07.01.13-.03.19-.05.1-.11.06-.17.13-.05.06-.1.28-.08.36-.17.06-.01.23-.02.35 0 .05-.04.11-.04.16-.01.12.02.27.07.37.1.2.27.41.44.54.19.15.36.57.61.63.18.04.38-.1.54-.14.18-.04.4.01.57-.05.22-.08.13-.34.29-.45.1-.07.29-.01.41-.05.2-.07.34-.26.38-.46.02-.08.01-.14.04-.22.04-.1.11-.16.09-.29-.01-.06-.05-.12-.06-.19-.02-.11 0-.22 0-.34 0-.2.02-.38-.08-.55-.38-.69-1.24-.93-1.97-.79-.18.03-.29.13-.44.21-.17.09-.14.17-.32.22-.08.03-.22.12-.21.22 0 .12 0 .05.01.17-.02.01-.02 0-.03-.03M31.14-41.04c.02.07.01.13-.03.19-.05.1-.11.06-.16.13-.05.06-.1.28-.08.36-.17.06-.01.23-.02.35 0 .05-.04.11-.05.16-.01.12.02.27.07.37.1.2.27.41.44.54.19.15.36.57.61.63.18.04.38-.1.54-.14.18-.04.4.01.57-.05.22-.08.13-.34.29-.45.1-.07.29-.01.41-.05.2-.07.34-.26.38-.46.02-.08.01-.14.04-.22.04-.1.11-.16.09-.29-.01-.06-.05-.12-.06-.19-.02-.11 0-.22 0-.34 0-.2.02-.38-.08-.55-.38-.69-1.24-.93-1.97-.79-.18.03-.29.13-.44.21-.17.09-.14.17-.32.22-.08.03-.22.12-.21.22 0 .12 0 .05.01.17-.02.01-.02 0-.03-.03M23.48-41.04c.02.07.01.13-.03.19-.05.1-.11.06-.17.13-.05.06-.1.28-.08.36-.17.06-.01.23-.02.35 0 .05-.04.11-.04.16-.01.12.02.27.07.37.1.2.27.41.44.54.19.15.36.57.61.63.18.04.38-.1.54-.14.18-.04.4.01.57-.05.22-.08.13-.34.29-.45.1-.07.29-.01.41-.05.2-.07.34-.26.38-.46.02-.08.01-.14.04-.22.04-.1.11-.16.09-.29-.01-.06-.05-.12-.06-.19-.02-.11 0-.22 0-.34 0-.2.02-.38-.08-.55-.38-.69-1.24-.93-1.97-.79-.18.03-.29.13-.44.21-.17.09-.14.17-.32.22-.08.03-.22.12-.21.22 0 .12 0 .05.01.17-.02.01-.02 0-.03-.03M15.82-41.04c.02.07.01.13-.03.19-.05.1-.11.06-.16.13-.05.06-.1.28-.08.36-.17.06-.01.23-.02.35 0 .05-.04.11-.05.16-.01.12.02.27.07.37.1.2.27.41.44.54.19.15.36.57.61.63.18.04.38-.1.54-.14.18-.04.4.01.57-.05.22-.08.13-.34.29-.45.1-.07.29-.01.41-.05.2-.07.34-.26.38-.46.02-.08.01-.14.04-.22.04-.1.11-.16.09-.29-.01-.06-.05-.12-.06-.19-.02-.11 0-.22 0-.34 0-.2.02-.38-.08-.55-.38-.69-1.24-.93-1.97-.79-.18.03-.29.13-.44.21-.17.09-.14.17-.32.22-.08.03-.22.12-.21.22 0 .12 0 .05.01.17-.02.01-.02 0-.03-.03M8.16-41.04c.02.07.01.13-.03.19-.05.1-.11.06-.17.13-.05.06-.1.28-.08.36-.17.06-.01.23-.02.35 0 .05-.04.11-.04.16-.01.12.02.27.07.37.1.2.27.41.44.54.19.15.36.57.61.63.18.04.38-.1.54-.14.18-.04.4.01.57-.05.22-.08.13-.34.29-.45.1-.07.29-.01.41-.05.2-.07.34-.26.38-.46.02-.08.01-.14.04-.22.04-.1.11-.16.09-.29-.01-.06-.05-.12-.06-.19-.02-.11 0-.22 0-.34 0-.2.02-.38-.08-.55-.38-.69-1.24-.93-1.97-.79-.18.03-.29.13-.44.21-.17.09-.14.17-.32.22-.08.03-.22.12-.21.22 0 .12 0 .05.01.17-.02.01-.02 0-.03-.03M.5-41.04c.02.07.01.13-.03.19-.05.1-.11.06-.17.13-.05.06-.1.28-.08.36-.17.06-.01.23-.02.35 0 .05-.04.11-.04.16-.01.12.02.27.07.37.1.2.27.41.44.54.19.15.36.57.61.63.18.04.38-.1.54-.14.18-.04.4.01.57-.05.22-.08.13-.34.29-.45.1-.07.29-.01.41-.05.2-.07.34-.26.38-.46.02-.08.01-.14.04-.22.04-.1.11-.16.09-.29-.01-.06-.05-.12-.06-.19-.02-.11 0-.22 0-.34 0-.2.02-.38-.08-.55-.38-.69-1.24-.93-1.97-.79-.18.03-.29.13-.44.21-.17.09-.14.17-.32.22-.08.03-.22.12-.21.22 0 .12 0 .05.01.17-.02.01-.02 0-.03-.03" class="st2"/>
      </g>
      <g>
        <path d="M69.44-33.39c.02.07.01.13-.03.19-.05.1-.11.06-.17.13-.05.06-.1.28-.08.36-.17.06-.01.23-.02.35 0 .05-.04.11-.04.16-.01.12.02.27.07.37.1.2.27.41.43.54.19.15.36.57.61.63.18.04.38-.1.54-.14.18-.04.4.01.57-.05.22-.08.13-.34.29-.45.1-.07.29-.01.41-.05.2-.07.34-.26.38-.46.02-.08.01-.14.04-.22.04-.1.11-.16.09-.29-.01-.06-.05-.12-.06-.19-.02-.11 0-.22 0-.34 0-.2.02-.38-.08-.55-.38-.69-1.24-.93-1.97-.79-.18.03-.29.13-.44.21-.17.09-.14.17-.32.22-.08.03-.22.12-.21.22 0 .12 0 .05.01.17-.02.01-.02 0-.03-.03M61.78-33.39c.02.07.01.13-.03.19-.05.1-.11.06-.17.13-.05.06-.1.28-.08.36-.17.06-.01.23-.02.35 0 .05-.04.11-.04.16-.01.12.02.27.07.37.1.2.27.41.44.54.19.15.36.57.61.63.18.04.38-.1.54-.14.18-.04.4.01.57-.05.22-.08.13-.34.29-.45.1-.07.29-.01.41-.05.2-.07.34-.26.38-.46.02-.08.01-.14.04-.22.04-.1.11-.16.09-.29-.01-.06-.05-.12-.06-.19-.02-.11 0-.22 0-.34 0-.2.02-.38-.08-.55-.38-.69-1.24-.93-1.97-.79-.18.03-.29.13-.44.21-.17.09-.14.17-.32.22-.08.03-.22.12-.21.22 0 .12 0 .05.01.17-.02.01-.02 0-.03-.03M54.12-33.39c.02.07.01.13-.03.19-.05.1-.11.06-.17.13-.05.06-.1.28-.08.36-.17.06-.01.23-.02.35 0 .05-.04.11-.04.16-.01.12.02.27.07.37.1.2.27.41.44.54.19.15.36.57.61.63.18.04.38-.1.54-.14.18-.04.4.01.57-.05.22-.08.13-.34.29-.45.1-.07.29-.01.41-.05.2-.07.34-.26.38-.46.02-.08.01-.14.04-.22.04-.1.11-.16.09-.29-.01-.06-.05-.12-.06-.19-.02-.11 0-.22 0-.34 0-.2.02-.38-.08-.55-.38-.69-1.24-.93-1.97-.79-.18.03-.29.13-.44.21-.17.09-.14.17-.32.22-.08.03-.22.12-.21.22 0 .12 0 .05.01.17-.02.01-.02 0-.03-.03M46.46-33.39c.02.07.01.13-.03.19-.05.1-.11.06-.16.13-.05.06-.1.28-.08.36-.17.06-.01.23-.02.35 0 .05-.04.11-.05.16-.01.12.02.27.07.37.1.2.27.41.44.54.19.15.36.57.61.63.18.04.38-.1.54-.14.18-.04.4.01.57-.05.22-.08.13-.34.29-.45.1-.07.29-.01.41-.05.2-.07.34-.26.38-.46.02-.08.01-.14.04-.22.04-.1.11-.16.09-.29-.01-.06-.05-.12-.06-.19-.02-.11 0-.22 0-.34 0-.2.02-.38-.08-.55-.38-.69-1.24-.93-1.97-.79-.18.03-.29.13-.44.21-.17.09-.14.17-.32.22-.08.03-.22.12-.21.22 0 .12 0 .05.01.17-.02.01-.02 0-.03-.03M38.8-33.39c.02.07.01.13-.03.19-.05.1-.11.06-.17.13-.05.06-.1.28-.08.36-.17.06-.01.23-.02.35 0 .05-.04.11-.04.16-.01.12.02.27.07.37.1.2.27.41.44.54.19.15.36.57.61.63.18.04.38-.1.54-.14.18-.04.4.01.57-.05.22-.08.13-.34.29-.45.1-.07.29-.01.41-.05.2-.07.34-.26.38-.46.02-.08.01-.14.04-.22.04-.1.11-.16.09-.29-.01-.06-.05-.12-.06-.19-.02-.11 0-.22 0-.34 0-.2.02-.38-.08-.55-.38-.69-1.24-.93-1.97-.79-.18.03-.29.13-.44.21-.17.09-.14.17-.32.22-.08.03-.22.12-.21.22 0 .12 0 .05.01.17-.02.01-.02 0-.03-.03M31.14-33.39c.02.07.01.13-.03.19-.05.1-.11.06-.16.13-.05.06-.1.28-.08.36-.17.06-.01.23-.02.35 0 .05-.04.11-.05.16-.01.12.02.27.07.37.1.2.27.41.44.54.19.15.36.57.61.63.18.04.38-.1.54-.14.18-.04.4.01.57-.05.22-.08.13-.34.29-.45.1-.07.29-.01.41-.05.2-.07.34-.26.38-.46.02-.08.01-.14.04-.22.04-.1.11-.16.09-.29-.01-.06-.05-.12-.06-.19-.02-.11 0-.22 0-.34 0-.2.02-.38-.08-.55-.38-.69-1.24-.93-1.97-.79-.18.03-.29.13-.44.21-.17.09-.14.17-.32.22-.08.03-.22.12-.21.22 0 .12 0 .05.01.17-.02.01-.02 0-.03-.03M23.48-33.39c.02.07.01.13-.03.19-.05.1-.11.06-.17.13-.05.06-.1.28-.08.36-.17.06-.01.23-.02.35 0 .05-.04.11-.04.16-.01.12.02.27.07.37.1.2.27.41.44.54.19.15.36.57.61.63.18.04.38-.1.54-.14.18-.04.4.01.57-.05.22-.08.13-.34.29-.45.1-.07.29-.01.41-.05.2-.07.34-.26.38-.46.02-.08.01-.14.04-.22.04-.1.11-.16.09-.29-.01-.06-.05-.12-.06-.19-.02-.11 0-.22 0-.34 0-.2.02-.38-.08-.55-.38-.69-1.24-.93-1.97-.79-.18.03-.29.13-.44.21-.17.09-.14.17-.32.22-.08.03-.22.12-.21.22 0 .12 0 .05.01.17-.02.01-.02 0-.03-.03M15.82-33.39c.02.07.01.13-.03.19-.05.1-.11.06-.16.13-.05.06-.1.28-.08.36-.17.06-.01.23-.02.35 0 .05-.04.11-.05.16-.01.12.02.27.07.37.1.2.27.41.44.54.19.15.36.57.61.63.18.04.38-.1.54-.14.18-.04.4.01.57-.05.22-.08.13-.34.29-.45.1-.07.29-.01.41-.05.2-.07.34-.26.38-.46.02-.08.01-.14.04-.22.04-.1.11-.16.09-.29-.01-.06-.05-.12-.06-.19-.02-.11 0-.22 0-.34 0-.2.02-.38-.08-.55-.38-.69-1.24-.93-1.97-.79-.18.03-.29.13-.44.21-.17.09-.14.17-.32.22-.08.03-.22.12-.21.22 0 .12 0 .05.01.17-.02.01-.02 0-.03-.03M8.16-33.39c.02.07.01.13-.03.19-.05.1-.11.06-.17.13-.05.06-.1.28-.08.36-.17.06-.01.23-.02.35 0 .05-.04.11-.04.16-.01.12.02.27.07.37.1.2.27.41.44.54.19.15.36.57.61.63.18.04.38-.1.54-.14.18-.04.4.01.57-.05.22-.08.13-.34.29-.45.1-.07.29-.01.41-.05.2-.07.34-.26.38-.46.02-.08.01-.14.04-.22.04-.1.11-.16.09-.29-.01-.06-.05-.12-.06-.19-.02-.11 0-.22 0-.34 0-.2.02-.38-.08-.55-.38-.69-1.24-.93-1.97-.79-.18.03-.29.13-.44.21-.17.09-.14.17-.32.22-.08.03-.22.12-.21.22 0 .12 0 .05.01.17-.02.01-.02 0-.03-.03M.5-33.39c.02.07.01.13-.03.19-.05.1-.11.06-.17.13-.05.06-.1.28-.08.36-.17.06-.01.23-.02.35 0 .05-.04.11-.04.16-.01.12.02.27.07.37.1.2.27.41.44.54.19.15.36.57.61.63.18.04.38-.1.54-.14.18-.04.4.01.57-.05.22-.08.13-.34.29-.45.1-.07.29-.01.41-.05.2-.07.34-.26.38-.46.02-.08.01-.14.04-.22.04-.1.11-.16.09-.29-.01-.06-.05-.12-.06-.19-.02-.11 0-.22 0-.34 0-.2.02-.38-.08-.55-.38-.69-1.24-.93-1.97-.79-.18.03-.29.13-.44.21-.17.09-.14.17-.32.22-.08.03-.22.12-.21.22 0 .12 0 .05.01.17-.02.01-.02 0-.03-.03" class="st2"/>
      </g>
      <g>
        <path d="M69.44-25.74c.02.07.01.13-.03.19-.05.1-.11.06-.17.13-.05.06-.1.28-.08.36-.16.06 0 .23-.01.35 0 .05-.04.11-.04.16-.01.12.02.27.07.37.1.2.27.41.43.54.19.15.36.57.61.63.18.04.38-.1.54-.14.18-.04.4.01.57-.05.22-.08.13-.34.29-.45.1-.07.29-.01.41-.05.2-.07.34-.26.38-.46.02-.08.01-.14.04-.22.04-.1.11-.16.09-.29-.01-.06-.05-.12-.06-.19-.02-.11 0-.22 0-.34 0-.2.02-.38-.08-.55-.38-.69-1.24-.93-1.97-.79-.18.03-.29.13-.44.21-.17.09-.14.17-.32.22-.08.03-.22.12-.21.22 0 .12 0 .05.01.17-.02.01-.02 0-.03-.03M61.78-25.74c.02.07.01.13-.03.19-.05.1-.11.06-.17.13-.05.06-.1.28-.08.36-.17.06-.01.23-.02.35 0 .05-.04.11-.04.16-.01.12.02.27.07.37.1.2.27.41.44.54.19.15.36.57.61.63.18.04.38-.1.54-.14.18-.04.4.01.57-.05.22-.08.13-.34.29-.45.1-.07.29-.01.41-.05.2-.07.34-.26.38-.46.02-.08.01-.14.04-.22.04-.1.11-.16.09-.29-.01-.06-.05-.12-.06-.19-.02-.11 0-.22 0-.34 0-.2.02-.38-.08-.55-.38-.69-1.24-.93-1.97-.79-.18.03-.29.13-.44.21-.17.09-.14.17-.32.22-.08.03-.22.12-.21.22 0 .12 0 .05.01.17-.02.01-.02 0-.03-.03M54.12-25.74c.02.07.01.13-.03.19-.05.1-.11.06-.17.13-.05.06-.1.28-.08.36-.17.06-.01.23-.02.35 0 .05-.04.11-.04.16-.01.12.02.27.07.37.1.2.27.41.44.54.19.15.36.57.61.63.18.04.38-.1.54-.14.18-.04.4.01.57-.05.22-.08.13-.34.29-.45.1-.07.29-.01.41-.05.2-.07.34-.26.38-.46.02-.08.01-.14.04-.22.04-.1.11-.16.09-.29-.01-.06-.05-.12-.06-.19-.02-.11 0-.22 0-.34 0-.2.02-.38-.08-.55-.38-.69-1.24-.93-1.97-.79-.18.03-.29.13-.44.21-.17.09-.14.17-.32.22-.08.03-.22.12-.21.22 0 .12 0 .05.01.17-.02.01-.02 0-.03-.03M46.46-25.74c.02.07.01.13-.03.19-.05.1-.11.06-.16.13-.05.06-.1.28-.08.36-.17.06-.01.23-.02.35 0 .05-.04.11-.05.16-.01.12.02.27.07.37.1.2.27.41.44.54.19.15.36.57.61.63.18.04.38-.1.54-.14.18-.04.4.01.57-.05.22-.08.13-.34.29-.45.1-.07.29-.01.41-.05.2-.07.34-.26.38-.46.02-.08.01-.14.04-.22.04-.1.11-.16.09-.29-.01-.06-.05-.12-.06-.19-.02-.11 0-.22 0-.34 0-.2.02-.38-.08-.55-.38-.69-1.24-.93-1.97-.79-.18.03-.29.13-.44.21-.17.09-.14.17-.32.22-.08.03-.22.12-.21.22 0 .12 0 .05.01.17-.02.01-.02 0-.03-.03M38.8-25.74c.02.07.01.13-.03.19-.05.1-.11.06-.17.13-.05.06-.1.28-.08.36-.17.06-.01.23-.02.35 0 .05-.04.11-.04.16-.01.12.02.27.07.37.1.2.27.41.44.54.19.15.36.57.61.63.18.04.38-.1.54-.14.18-.04.4.01.57-.05.22-.08.13-.34.29-.45.1-.07.29-.01.41-.05.2-.07.34-.26.38-.46.02-.08.01-.14.04-.22.04-.1.11-.16.09-.29-.01-.06-.05-.12-.06-.19-.02-.11 0-.22 0-.34 0-.2.02-.38-.08-.55-.38-.69-1.24-.93-1.97-.79-.18.03-.29.13-.44.21-.17.09-.14.17-.32.22-.08.03-.22.12-.21.22 0 .12 0 .05.01.17-.02.01-.02 0-.03-.03M31.14-25.74c.02.07.01.13-.03.19-.05.1-.11.06-.16.13-.05.06-.1.28-.08.36-.17.06-.01.23-.02.35 0 .05-.04.11-.05.16-.01.12.02.27.07.37.1.2.27.41.44.54.19.15.36.57.61.63.18.04.38-.1.54-.14.18-.04.4.01.57-.05.22-.08.13-.34.29-.45.1-.07.29-.01.41-.05.2-.07.34-.26.38-.46.02-.08.01-.14.04-.22.04-.1.11-.16.09-.29-.01-.06-.05-.12-.06-.19-.02-.11 0-.22 0-.34 0-.2.02-.38-.08-.55-.38-.69-1.24-.93-1.97-.79-.18.03-.29.13-.44.21-.17.09-.14.17-.32.22-.08.03-.22.12-.21.22 0 .12 0 .05.01.17-.02.01-.02 0-.03-.03M23.48-25.74c.02.07.01.13-.03.19-.05.1-.11.06-.17.13-.05.06-.1.28-.08.36-.17.06-.01.23-.02.35 0 .05-.04.11-.04.16-.01.12.02.27.07.37.1.2.27.41.44.54.19.15.36.57.61.63.18.04.38-.1.54-.14.18-.04.4.01.57-.05.22-.08.13-.34.29-.45.1-.07.29-.01.41-.05.2-.07.34-.26.38-.46.02-.08.01-.14.04-.22.04-.1.11-.16.09-.29-.01-.06-.05-.12-.06-.19-.02-.11 0-.22 0-.34 0-.2.02-.38-.08-.55-.38-.69-1.24-.93-1.97-.79-.18.03-.29.13-.44.21-.17.09-.14.17-.32.22-.08.03-.22.12-.21.22 0 .12 0 .05.01.17-.02.01-.02 0-.03-.03M15.82-25.74c.02.07.01.13-.03.19-.05.1-.11.06-.16.13-.05.06-.1.28-.08.36-.17.06-.01.23-.02.35 0 .05-.04.11-.05.16-.01.12.02.27.07.37.1.2.27.41.44.54.19.15.36.57.61.63.18.04.38-.1.54-.14.18-.04.4.01.57-.05.22-.08.13-.34.29-.45.1-.07.29-.01.41-.05.2-.07.34-.26.38-.46.02-.08.01-.14.04-.22.04-.1.11-.16.09-.29-.01-.06-.05-.12-.06-.19-.02-.11 0-.22 0-.34 0-.2.02-.38-.08-.55-.38-.69-1.24-.93-1.97-.79-.18.03-.29.13-.44.21-.17.09-.14.17-.32.22-.08.03-.22.12-.21.22 0 .12 0 .05.01.17-.02.01-.02 0-.03-.03M8.16-25.74c.02.07.01.13-.03.19-.05.1-.11.06-.17.13-.05.06-.1.28-.08.36-.16.06 0 .23-.01.35 0 .05-.04.11-.04.16-.01.12.02.27.07.37.1.2.27.41.44.54.19.15.36.57.61.63.18.04.38-.1.54-.14.18-.04.4.01.57-.05.22-.08.13-.34.29-.45.1-.07.29-.01.41-.05.2-.07.34-.26.38-.46.02-.08.01-.14.04-.22.04-.1.11-.16.09-.29-.01-.06-.05-.12-.06-.19-.02-.11 0-.22 0-.34 0-.2.02-.38-.08-.55-.38-.69-1.24-.93-1.97-.79-.18.03-.29.13-.44.21-.17.09-.14.17-.32.22-.08.03-.22.12-.21.22 0 .12 0 .05.01.17-.02.01-.02 0-.03-.03M.5-25.74c.02.07.01.13-.03.19-.05.1-.11.06-.17.13-.05.06-.1.28-.08.36-.16.06 0 .23-.01.35 0 .05-.04.11-.04.16-.01.12.02.27.07.37.1.2.27.41.44.54.19.15.36.57.61.63.18.04.38-.1.54-.14.18-.04.4.01.57-.05.22-.08.13-.34.29-.45.1-.07.29-.01.41-.05.2-.07.34-.26.38-.46.02-.08.01-.14.04-.22.04-.1.11-.16.09-.29-.01-.06-.05-.12-.06-.19-.02-.11 0-.22 0-.34 0-.2.02-.38-.08-.55-.38-.69-1.24-.93-1.97-.79-.18.03-.29.13-.44.21-.17.09-.14.17-.32.22-.08.03-.22.12-.21.22 0 .12 0 .05.01.17-.02.01-.02 0-.03-.03" class="st2"/>
      </g>
      <g>
        <path d="M69.44-18.08c.02.07.01.13-.03.19-.05.1-.11.06-.17.13-.05.06-.1.28-.08.36-.17.06-.01.23-.02.35 0 .05-.04.11-.04.16-.01.12.02.27.07.37.1.2.27.41.43.54.19.15.36.57.61.63.18.04.38-.1.54-.14.18-.04.4.01.57-.05.22-.08.13-.34.29-.45.1-.07.29-.01.41-.05.2-.07.34-.26.38-.46.02-.08.01-.14.04-.22.04-.1.11-.16.09-.29-.01-.06-.05-.12-.06-.19-.02-.11 0-.22 0-.34 0-.2.02-.38-.08-.55-.38-.69-1.24-.93-1.97-.79-.18.03-.29.13-.44.21-.17.09-.14.17-.32.22-.08.03-.22.12-.21.22 0 .12 0 .05.01.17-.02.01-.02 0-.03-.03M61.78-18.08c.02.07.01.13-.03.19-.05.1-.11.06-.17.13-.05.06-.1.28-.08.36-.17.06-.01.23-.02.35 0 .05-.04.11-.04.16-.01.12.02.27.07.37.1.2.27.41.44.54.19.15.36.57.61.63.18.04.38-.1.54-.14.18-.04.4.01.57-.05.22-.08.13-.34.29-.45.1-.07.29-.01.41-.05.2-.07.34-.26.38-.46.02-.08.01-.14.04-.22.04-.1.11-.16.09-.29-.01-.06-.05-.12-.06-.19-.02-.11 0-.22 0-.34 0-.2.02-.38-.08-.55-.38-.69-1.24-.93-1.97-.79-.18.03-.29.13-.44.21-.17.09-.14.17-.32.22-.08.03-.22.12-.21.22 0 .12 0 .05.01.17-.02.01-.02 0-.03-.03M54.12-18.08c.02.07.01.13-.03.19-.05.1-.11.06-.17.13-.05.06-.1.28-.08.36-.17.06-.01.23-.02.35 0 .05-.04.11-.04.16-.01.12.02.27.07.37.1.2.27.41.44.54.19.15.36.57.61.63.18.04.38-.1.54-.14.18-.04.4.01.57-.05.22-.08.13-.34.29-.45.1-.07.29-.01.41-.05.2-.07.34-.26.38-.46.02-.08.01-.14.04-.22.04-.1.11-.16.09-.29-.01-.06-.05-.12-.06-.19-.02-.11 0-.22 0-.34 0-.2.02-.38-.08-.55-.38-.69-1.24-.93-1.97-.79-.18.03-.29.13-.44.21-.17.09-.14.17-.32.22-.08.03-.22.12-.21.22 0 .12 0 .05.01.17-.02.01-.02 0-.03-.03M46.46-18.08c.02.07.01.13-.03.19-.05.1-.11.06-.16.13-.05.06-.1.28-.08.36-.17.06-.01.23-.02.35 0 .05-.04.11-.05.16-.01.12.02.27.07.37.1.2.27.41.44.54.19.15.36.57.61.63.18.04.38-.1.54-.14.18-.04.4.01.57-.05.22-.08.13-.34.29-.45.1-.07.29-.01.41-.05.2-.07.34-.26.38-.46.02-.08.01-.14.04-.22.04-.1.11-.16.09-.29-.01-.06-.05-.12-.06-.19-.02-.11 0-.22 0-.34 0-.2.02-.38-.08-.55-.38-.69-1.24-.93-1.97-.79-.18.03-.29.13-.44.21-.17.09-.14.17-.32.22-.08.03-.22.12-.21.22 0 .12 0 .05.01.17-.02.01-.02 0-.03-.03M38.8-18.08c.02.07.01.13-.03.19-.05.1-.11.06-.17.13-.05.06-.1.28-.08.36-.17.06-.01.23-.02.35 0 .05-.04.11-.04.16-.01.12.02.27.07.37.1.2.27.41.44.54.19.15.36.57.61.63.18.04.38-.1.54-.14.18-.04.4.01.57-.05.22-.08.13-.34.29-.45.1-.07.29-.01.41-.05.2-.07.34-.26.38-.46.02-.08.01-.14.04-.22.04-.1.11-.16.09-.29-.01-.06-.05-.12-.06-.19-.02-.11 0-.22 0-.34 0-.2.02-.38-.08-.55-.38-.69-1.24-.93-1.97-.79-.18.03-.29.13-.44.21-.17.09-.14.17-.32.22-.08.03-.22.12-.21.22 0 .12 0 .05.01.17-.02.01-.02 0-.03-.03M31.14-18.08c.02.07.01.13-.03.19-.05.1-.11.06-.16.13-.05.06-.1.28-.08.36-.17.06-.01.23-.02.35 0 .05-.04.11-.05.16-.01.12.02.27.07.37.1.2.27.41.44.54.19.15.36.57.61.63.18.04.38-.1.54-.14.18-.04.4.01.57-.05.22-.08.13-.34.29-.45.1-.07.29-.01.41-.05.2-.07.34-.26.38-.46.02-.08.01-.14.04-.22.04-.1.11-.16.09-.29-.01-.06-.05-.12-.06-.19-.02-.11 0-.22 0-.34 0-.2.02-.38-.08-.55-.38-.69-1.24-.93-1.97-.79-.18.03-.29.13-.44.21-.17.09-.14.17-.32.22-.08.03-.22.12-.21.22 0 .12 0 .05.01.17-.02.01-.02 0-.03-.03M23.48-18.08c.02.07.01.13-.03.19-.05.1-.11.06-.17.13-.05.06-.1.28-.08.36-.17.06-.01.23-.02.35 0 .05-.04.11-.04.16-.01.12.02.27.07.37.1.2.27.41.44.54.19.15.36.57.61.63.18.04.38-.1.54-.14.18-.04.4.01.57-.05.22-.08.13-.34.29-.45.1-.07.29-.01.41-.05.2-.07.34-.26.38-.46.02-.08.01-.14.04-.22.04-.1.11-.16.09-.29-.01-.06-.05-.12-.06-.19-.02-.11 0-.22 0-.34 0-.2.02-.38-.08-.55-.38-.69-1.24-.93-1.97-.79-.18.03-.29.13-.44.21-.17.09-.14.17-.32.22-.08.03-.22.12-.21.22 0 .12 0 .05.01.17-.02.01-.02 0-.03-.03M15.82-18.08c.02.07.01.13-.03.19-.05.1-.11.06-.16.13-.05.06-.1.28-.08.36-.17.06-.01.23-.02.35 0 .05-.04.11-.05.16-.01.12.02.27.07.37.1.2.27.41.44.54.19.15.36.57.61.63.18.04.38-.1.54-.14.18-.04.4.01.57-.05.22-.08.13-.34.29-.45.1-.07.29-.01.41-.05.2-.07.34-.26.38-.46.02-.08.01-.14.04-.22.04-.1.11-.16.09-.29-.01-.06-.05-.12-.06-.19-.02-.11 0-.22 0-.34 0-.2.02-.38-.08-.55-.38-.69-1.24-.93-1.97-.79-.18.03-.29.13-.44.21-.17.09-.14.17-.32.22-.08.03-.22.12-.21.22 0 .12 0 .05.01.17-.02.01-.02 0-.03-.03M8.16-18.08c.02.07.01.13-.03.19-.05.1-.11.06-.17.13-.05.06-.1.28-.08.36-.17.06-.01.23-.02.35 0 .05-.04.11-.04.16-.01.12.02.27.07.37.1.2.27.41.44.54.19.15.36.57.61.63.18.04.38-.1.54-.14.18-.04.4.01.57-.05.22-.08.13-.34.29-.45.1-.07.29-.01.41-.05.2-.07.34-.26.38-.46.02-.08.01-.14.04-.22.04-.1.11-.16.09-.29-.01-.06-.05-.12-.06-.19-.02-.11 0-.22 0-.34 0-.2.02-.38-.08-.55-.38-.69-1.24-.93-1.97-.79-.18.03-.29.13-.44.21-.17.09-.14.17-.32.22-.08.03-.22.12-.21.22 0 .12 0 .05.01.17-.02.01-.02 0-.03-.03M.5-18.08c.02.07.01.13-.03.19-.05.1-.11.06-.17.13-.05.06-.1.28-.08.36-.17.06-.01.23-.02.35 0 .05-.04.11-.04.16-.01.12.02.27.07.37.1.2.27.41.44.54.19.15.36.57.61.63.18.04.38-.1.54-.14.18-.04.4.01.57-.05.22-.08.13-.34.29-.45.1-.07.29-.01.41-.05.2-.07.34-.26.38-.46.02-.08.01-.14.04-.22.04-.1.11-.16.09-.29-.01-.06-.05-.12-.06-.19-.02-.11 0-.22 0-.34 0-.2.02-.38-.08-.55-.38-.69-1.24-.93-1.97-.79-.18.03-.29.13-.44.21-.17.09-.14.17-.32.22-.08.03-.22.12-.21.22 0 .12 0 .05.01.17-.02.01-.02 0-.03-.03" class="st2"/>
      </g>
      <g>
        <path d="M69.44-10.43c.02.07.01.13-.03.19-.05.1-.11.06-.17.13-.05.06-.1.28-.08.36-.16.06 0 .23-.01.35 0 .05-.04.11-.04.16-.01.12.02.27.07.37.1.2.27.41.43.54.19.15.36.57.61.63.18.04.38-.1.54-.14.18-.04.4.01.57-.05.22-.08.13-.34.29-.45.1-.07.29-.01.41-.05.2-.07.34-.26.38-.46.02-.08.01-.14.04-.22.04-.1.11-.16.09-.29-.01-.06-.05-.12-.06-.19-.02-.11 0-.22 0-.34 0-.2.02-.38-.08-.55-.38-.69-1.24-.93-1.97-.79-.18.03-.29.13-.44.21-.17.09-.14.17-.32.22-.08.03-.22.12-.21.22 0 .12 0 .05.01.17-.02.01-.02 0-.03-.03M61.78-10.43c.02.07.01.13-.03.19-.05.1-.11.06-.17.13-.05.06-.1.28-.08.36-.17.06-.01.23-.02.35 0 .05-.04.11-.04.16-.01.12.02.27.07.37.1.2.27.41.44.54.19.15.36.57.61.63.18.04.38-.1.54-.14.18-.04.4.01.57-.05.22-.08.13-.34.29-.45.1-.07.29-.01.41-.05.2-.07.34-.26.38-.46.02-.08.01-.14.04-.22.04-.1.11-.16.09-.29-.01-.06-.05-.12-.06-.19-.02-.11 0-.22 0-.34 0-.2.02-.38-.08-.55-.38-.69-1.24-.93-1.97-.79-.18.03-.29.13-.44.21-.17.09-.14.17-.32.22-.08.03-.22.12-.21.22 0 .12 0 .05.01.17-.02.01-.02 0-.03-.03M54.12-10.43c.02.07.01.13-.03.19-.05.1-.11.06-.17.13-.05.06-.1.28-.08.36-.17.06-.01.23-.02.35 0 .05-.04.11-.04.16-.01.12.02.27.07.37.1.2.27.41.44.54.19.15.36.57.61.63.18.04.38-.1.54-.14.18-.04.4.01.57-.05.22-.08.13-.34.29-.45.1-.07.29-.01.41-.05.2-.07.34-.26.38-.46.01-.08 0-.15.03-.22.04-.1.11-.16.09-.29-.01-.06-.05-.12-.06-.19-.02-.11 0-.22 0-.34 0-.2.02-.38-.08-.55-.38-.69-1.24-.93-1.97-.79-.18.03-.29.13-.44.21-.17.09-.14.17-.32.22-.08.03-.22.12-.21.22 0 .12 0 .05.01.17-.02.01-.02 0-.03-.03M46.46-10.43c.02.07.01.13-.03.19-.05.1-.11.06-.16.13-.05.06-.1.28-.08.36-.17.06-.01.23-.02.35 0 .05-.04.11-.05.16-.01.12.02.27.07.37.1.2.27.41.44.54.19.15.36.57.61.63.18.04.38-.1.54-.14.18-.04.4.01.57-.05.22-.08.13-.34.29-.45.1-.07.29-.01.41-.05.2-.07.34-.26.38-.46.02-.08.01-.14.04-.22.04-.1.11-.16.09-.29-.01-.06-.05-.12-.06-.19-.02-.11 0-.22 0-.34 0-.2.02-.38-.08-.55-.38-.69-1.24-.93-1.97-.79-.18.03-.29.13-.44.21-.17.09-.14.17-.32.22-.08.03-.22.12-.21.22 0 .12 0 .05.01.17-.02.01-.02 0-.03-.03M38.8-10.43c.02.07.01.13-.03.19-.05.1-.11.06-.17.13-.05.06-.1.28-.08.36-.17.06-.01.23-.02.35 0 .05-.04.11-.04.16-.01.12.02.27.07.37.1.2.27.41.44.54.19.15.36.57.61.63.18.04.38-.1.54-.14.18-.04.4.01.57-.05.22-.08.13-.34.29-.45.1-.07.29-.01.41-.05.2-.07.34-.26.38-.46.01-.08 0-.15.03-.22.04-.1.11-.16.09-.29-.01-.06-.05-.12-.06-.19-.02-.11 0-.22 0-.34 0-.2.02-.38-.08-.55-.38-.69-1.24-.93-1.97-.79-.18.03-.29.13-.44.21-.17.09-.14.17-.32.22-.08.03-.22.12-.21.22 0 .12 0 .05.01.17-.02.01-.02 0-.03-.03M31.14-10.43c.02.07.01.13-.03.19-.05.1-.11.06-.16.13-.05.06-.1.28-.08.36-.17.06-.01.23-.02.35 0 .05-.04.11-.05.16-.01.12.02.27.07.37.1.2.27.41.44.54.19.15.36.57.61.63.18.04.38-.1.54-.14.18-.04.4.01.57-.05.22-.08.13-.34.29-.45.1-.07.29-.01.41-.05.2-.07.34-.26.38-.46.02-.08.01-.14.04-.22.04-.1.11-.16.09-.29-.01-.06-.05-.12-.06-.19-.02-.11 0-.22 0-.34 0-.2.02-.38-.08-.55-.38-.69-1.24-.93-1.97-.79-.18.03-.29.13-.44.21-.17.09-.14.17-.32.22-.08.03-.22.12-.21.22 0 .12 0 .05.01.17-.02.01-.02 0-.03-.03M23.48-10.43c.02.07.01.13-.03.19-.05.1-.11.06-.17.13-.05.06-.1.28-.08.36-.17.06-.01.23-.02.35 0 .05-.04.11-.04.16-.01.12.02.27.07.37.1.2.27.41.44.54.19.15.36.57.61.63.18.04.38-.1.54-.14.18-.04.4.01.57-.05.22-.08.13-.34.29-.45.1-.07.29-.01.41-.05.2-.07.34-.26.38-.46.02-.08.01-.14.04-.22.04-.1.11-.16.09-.29-.01-.06-.05-.12-.06-.19-.02-.11 0-.22 0-.34 0-.2.02-.38-.08-.55-.38-.69-1.24-.93-1.97-.79-.18.03-.29.13-.44.21-.17.09-.14.17-.32.22-.08.03-.22.12-.21.22 0 .12 0 .05.01.17-.02.01-.02 0-.03-.03M15.82-10.43c.02.07.01.13-.03.19-.05.1-.11.06-.16.13-.05.06-.1.28-.08.36-.17.06-.01.23-.02.35 0 .05-.04.11-.05.16-.01.12.02.27.07.37.1.2.27.41.44.54.19.15.36.57.61.63.18.04.38-.1.54-.14.18-.04.4.01.57-.05.22-.08.13-.34.29-.45.1-.07.29-.01.41-.05.2-.07.34-.26.38-.46.01-.08 0-.15.03-.22.04-.1.11-.16.09-.29-.01-.06-.05-.12-.06-.19-.02-.11 0-.22 0-.34 0-.2.02-.38-.08-.55-.38-.69-1.24-.93-1.97-.79-.18.03-.29.13-.44.21-.17.09-.14.17-.32.22-.08.03-.22.12-.21.22 0 .12 0 .05.01.17-.02.01-.02 0-.03-.03M8.16-10.43c.02.07.01.13-.03.19-.05.1-.11.06-.17.13-.05.06-.1.28-.08.36-.16.06 0 .23-.01.35 0 .05-.04.11-.04.16-.01.12.01.27.06.37.1.2.27.41.44.54.19.15.36.57.61.63.18.04.38-.1.54-.14.18-.04.4.01.57-.05.22-.08.13-.34.29-.45.1-.07.29-.01.41-.05.2-.07.34-.26.38-.46.02-.08.01-.14.04-.22.04-.1.11-.16.09-.29-.01-.06-.05-.12-.06-.19-.02-.11 0-.22 0-.34 0-.2.02-.38-.08-.55-.38-.69-1.24-.93-1.97-.79-.18.03-.29.13-.44.21-.17.09-.14.17-.32.22-.08.03-.22.12-.21.22 0 .12 0 .05.01.17-.02.01-.02 0-.03-.03M.5-10.43c.02.07.01.13-.03.19-.05.1-.11.06-.17.13-.05.06-.1.28-.08.36-.16.06 0 .23-.01.35 0 .05-.04.11-.04.16-.01.12.01.27.06.37.1.2.27.41.44.54.19.15.36.57.61.63.18.04.38-.1.54-.14.18-.04.4.01.57-.05.22-.08.13-.34.29-.45.1-.07.29-.01.41-.05.2-.07.34-.26.38-.46.01-.08 0-.15.03-.22.04-.1.11-.16.09-.29-.01-.07-.05-.12-.06-.19-.02-.11 0-.22 0-.34 0-.2.02-.38-.08-.55-.38-.69-1.24-.93-1.97-.79-.18.03-.29.13-.44.21-.17.09-.14.17-.32.22-.08.03-.22.12-.21.22 0 .12 0 .05.01.17-.02.01-.02 0-.03-.03" class="st2"/>
      </g>
    </g>
    <g>
      <path d="M69.44-2.78c.02.07.01.13-.03.19-.05.1-.11.06-.17.13-.05.06-.1.28-.08.36-.16.06 0 .23-.01.35 0 .05-.04.11-.04.16-.01.12.02.27.07.37.1.2.27.41.43.54.19.15.36.57.61.63.18.05.38-.1.54-.13.18-.04.4.01.57-.05.22-.08.13-.34.29-.45.1-.07.29-.01.41-.05.2-.08.34-.27.37-.47.02-.08.01-.14.04-.22.04-.1.11-.16.09-.29-.01-.06-.05-.12-.06-.19-.02-.11 0-.22 0-.34 0-.2.02-.38-.08-.55-.38-.69-1.24-.93-1.97-.79-.18.03-.29.13-.44.21-.17.09-.14.17-.32.22-.08.03-.22.12-.21.22 0 .12 0 .05.01.17-.02.01-.02 0-.03-.03M61.78-2.78c.02.07.01.13-.03.19-.05.1-.11.06-.17.13-.05.06-.1.28-.08.36-.17.06-.01.23-.02.35 0 .05-.04.11-.04.16-.01.12.02.27.07.37.1.2.27.41.44.54.19.15.36.57.61.63.18.04.38-.1.54-.14.18-.04.4.01.57-.05.22-.08.13-.34.29-.45.1-.07.29-.01.41-.05.2-.07.34-.26.38-.46.02-.08.01-.14.04-.22.04-.1.11-.16.09-.29-.01-.06-.05-.12-.06-.19-.02-.11 0-.22 0-.34 0-.2.02-.38-.08-.55-.38-.69-1.24-.93-1.97-.79-.18.03-.29.13-.44.21-.19.09-.15.17-.33.23-.08.03-.22.12-.21.22 0 .12 0 .05.01.17-.02.01-.02 0-.03-.03M54.12-2.78c.02.07.01.13-.03.19-.05.1-.11.06-.17.13-.05.06-.1.28-.08.36-.17.06-.01.23-.02.35 0 .05-.04.11-.04.16-.01.12.02.27.07.37.1.2.27.41.44.54.19.15.36.57.61.63.18.04.38-.1.54-.14.18-.04.4.01.57-.05.22-.08.13-.34.29-.45.1-.07.29-.01.41-.05.2-.07.34-.26.38-.46.02-.08.01-.14.04-.22.04-.1.11-.16.09-.29-.01-.06-.05-.12-.06-.19-.02-.11 0-.22 0-.34 0-.2.02-.38-.08-.55-.38-.69-1.24-.93-1.97-.79-.18.03-.29.13-.44.21-.17.09-.14.17-.32.22-.08.03-.22.12-.21.22 0 .12 0 .05.01.17-.02.01-.02 0-.03-.03M46.46-2.78c.02.07.01.13-.03.19-.05.1-.11.06-.16.13-.05.06-.1.28-.08.36-.17.06-.01.23-.02.35 0 .05-.04.11-.05.16-.01.12.02.27.07.37.1.2.27.41.44.54.19.16.37.58.61.64.18.04.38-.1.54-.14.18-.04.4.01.57-.05.22-.08.13-.34.29-.45.1-.07.29-.01.41-.05.2-.07.34-.26.38-.46.02-.08.01-.14.04-.22.04-.1.11-.16.09-.29-.01-.06-.05-.12-.06-.19-.02-.11 0-.22 0-.34 0-.2.02-.38-.08-.55-.38-.69-1.24-.93-1.97-.79-.18.03-.29.13-.44.21-.17.09-.14.17-.32.22-.08.03-.22.12-.21.22 0 .12 0 .05.01.17-.02.01-.02 0-.03-.03M38.8-2.78c.02.07.01.13-.03.19-.05.1-.11.06-.17.13-.05.06-.1.28-.08.36-.17.06-.01.23-.02.35 0 .05-.04.11-.04.16-.01.12.02.27.07.37.1.2.27.41.44.54.19.15.36.57.61.63.18.04.38-.1.54-.14.18-.04.4.01.57-.05.22-.08.13-.34.29-.45.1-.07.29-.01.41-.05.2-.07.34-.26.38-.46.02-.08.01-.14.04-.22.04-.1.11-.16.09-.29-.01-.06-.05-.12-.06-.19-.02-.11 0-.22 0-.34 0-.2.02-.38-.08-.55-.38-.69-1.24-.93-1.97-.79-.18.03-.29.13-.44.21-.17.09-.14.17-.32.22-.08.03-.22.12-.21.22 0 .12 0 .05.01.17-.02.01-.02 0-.03-.03M31.14-2.78c.02.07.01.13-.03.19-.05.1-.11.06-.16.13-.05.06-.1.28-.08.36-.17.06-.01.23-.02.35 0 .05-.04.11-.05.16-.01.12.02.27.07.37.1.2.27.41.44.54.19.15.36.57.61.63.18.05.38-.1.54-.13.18-.04.4.01.57-.05.22-.08.13-.34.29-.45.1-.07.29-.01.41-.05.2-.08.34-.27.37-.47.02-.08.01-.14.04-.22.04-.1.11-.16.09-.29-.01-.06-.05-.12-.06-.19-.02-.11 0-.22 0-.34 0-.2.02-.38-.08-.55-.38-.69-1.24-.93-1.97-.79-.18.03-.29.13-.44.21-.17.09-.14.17-.32.22-.08.03-.22.12-.21.22 0 .12 0 .05.01.17-.02.01-.02 0-.03-.03M23.48-2.78c.02.07.01.13-.03.19-.05.1-.11.06-.17.13-.05.06-.1.28-.08.36-.17.06-.01.23-.02.35 0 .05-.04.11-.04.16-.01.12.02.27.07.37.1.2.27.41.44.54.19.15.36.57.61.63.18.04.38-.1.54-.14.18-.04.4.01.57-.05.22-.08.13-.34.29-.45.1-.07.29-.01.41-.05.2-.07.34-.26.38-.46.02-.08.01-.14.04-.22.04-.1.11-.16.09-.29-.01-.06-.05-.12-.06-.19-.02-.11 0-.22 0-.34 0-.2.02-.38-.08-.55-.38-.69-1.24-.93-1.97-.79-.18.03-.29.13-.44.21-.17.09-.14.17-.32.22-.08.03-.22.12-.21.22 0 .12 0 .05.01.17-.02.01-.02 0-.03-.03M15.82-2.78c.02.07.01.13-.03.19-.05.1-.11.06-.16.13-.05.06-.1.28-.08.36-.17.06-.01.23-.02.35 0 .05-.04.11-.05.16-.01.12.02.27.07.37.1.2.27.41.44.54.19.15.36.57.61.63.18.04.38-.1.54-.14.18-.04.4.01.57-.05.22-.08.13-.34.29-.45.1-.07.29-.01.41-.05.2-.07.34-.26.38-.46.02-.08.01-.14.04-.22.04-.1.11-.16.09-.29-.01-.06-.05-.12-.06-.19-.02-.11 0-.22 0-.34 0-.2.02-.38-.08-.55-.38-.69-1.24-.93-1.97-.79-.18.03-.29.13-.44.21-.17.09-.14.17-.32.22-.08.03-.22.12-.21.22 0 .12 0 .05.01.17-.02.01-.02 0-.03-.03M8.16-2.78c.02.07.01.13-.03.19-.05.1-.11.06-.17.13-.05.06-.09.28-.07.36-.17.06-.01.23-.02.35 0 .05-.04.11-.04.16-.01.12.01.27.06.37.1.2.27.41.44.54.19.16.36.58.61.64.17.04.38-.11.54-.14.18-.04.4.01.57-.05.22-.08.13-.34.29-.45.1-.07.29-.01.41-.05.2-.07.34-.26.38-.46.02-.08.01-.14.04-.22.04-.1.11-.16.09-.29-.01-.06-.05-.12-.06-.19-.02-.11 0-.22 0-.34 0-.2.02-.38-.08-.55-.38-.69-1.24-.93-1.97-.79-.2.03-.3.12-.46.2-.17.09-.14.17-.32.23-.08.02-.21.12-.21.22 0 .12 0 .05.01.17-.02.01-.02 0-.03-.03M.5-2.78c.01.07 0 .13-.03.19-.05.1-.11.06-.17.13-.05.06-.09.28-.07.36-.17.06-.02.23-.02.35 0 .05-.04.11-.04.16-.02.12.01.27.06.37.1.2.27.41.44.54.19.16.36.58.61.64.17.04.38-.11.54-.14.18-.05.4.01.57-.06.22-.08.13-.34.29-.45.1-.07.29-.01.41-.05.19-.07.33-.26.37-.46.02-.08.01-.14.04-.22.04-.1.11-.16.09-.29-.01-.06-.05-.12-.06-.19-.02-.11 0-.22 0-.34 0-.2.02-.38-.08-.55-.38-.68-1.24-.92-1.98-.78-.18.03-.28.12-.44.2-.17.09-.14.17-.32.23-.08.02-.21.12-.21.22 0 .12 0 .05.01.17-.02.01-.02 0-.03-.03" class="st2"/>
    </g>
  </pattern>
  <path d="m356.25 361.35-12.77-27.43a.762.762 0 0 1 .36-1c.38-.18.82-.01 1 .37l12.77 27.43c.17.38.01.82-.37 1a.74.74 0 0 1-.99-.37z"/>
  <path d="M331.75 360.9a.754.754 0 0 1-.37-1l12.13-26.61c.17-.38.62-.55 1-.37.38.17.55.62.37 1l-12.13 26.61c-.12.28-.4.44-.69.44-.1 0-.21-.02-.31-.07zM313.11 360.66 296.93 334c-.21-.35-.1-.82.25-1.04.36-.21.82-.1 1.03.25l16.17 26.66c.22.36.1.82-.25 1.03-.12.08-.26.11-.39.11a.718.718 0 0 1-.63-.35z"/>
  <path d="M296.74 360.27v-26.98c0-.42.34-.75.75-.75s.75.34.75.75v26.98a.749.749 0 1 1-1.5 0zM313 360.27v-26.98c0-.42.34-.75.75-.75s.75.34.75.75v26.98a.749.749 0 1 1-1.5 0zM319.52 361.86c-1.83 0-3.11-.24-3.15-.25a.75.75 0 0 1-.6-.88.75.75 0 0 1 .88-.6c0-.01 1.16.22 2.86.22 4.28-.09 11.18-1.22 11.46-10.63v-5.95c-.28-9.43-7.19-10.56-11.46-10.65-1.7 0-2.86.22-2.86.23a.75.75 0 0 1-.88-.6.75.75 0 0 1 .6-.88c.03-.01 1.31-.25 3.15-.25 4.45-.09 12.74 1.65 12.97 12.14v5.98c-.23 10.23-8.15 12.12-12.65 12.12-.11.01-.22.01-.32 0zM355.8 360.65l-11.86-7.78a.749.749 0 0 1-.22-1.04c.23-.34.69-.44 1.04-.22l11.86 7.78c.35.23.44.7.22 1.04a.74.74 0 0 1-.63.34c-.14 0-.28-.04-.41-.12z"/>
  <g>
    <path d="m271.59 359.64-12.13-26.6c-.17-.38 0-.82.37-1 .38-.17.82-.01 1 .37l12.13 26.6c.17.38 0 .82-.37 1a.753.753 0 0 1-1-.37z"/>
    <path d="M271.93 360.01a.754.754 0 0 1-.37-1l12.13-26.6c.17-.38.62-.54.99-.37.38.17.54.62.37 1l-12.13 26.6a.75.75 0 0 1-.68.44c-.1 0-.21-.02-.31-.07z"/>
  </g>
  <path d="M285.57 333.37a.749.749 0 1 1 0-1.5h7.81c.41 0 .75.34.75.75s-.34.75-.75.75h-7.81zM273.92 360.32c-.42 0-.75-.34-.75-.75s.34-.75.75-.75h19.45a.749.749 0 1 1 0 1.5h-19.45zM282.9 346a.749.749 0 1 1 0-1.5h10.47a.749.749 0 1 1 0 1.5H282.9z"/>
  <g>
    <path d="M322.59 246.21c-.11.95-7.32 56.76-33.79 52.61-1.7-.26 19.18 21.05 38.96-4.43 14.81-19.07 21.38-47.23 21.62-48.54 3.29-17.69-24.86-15.9-26.79.36z"/>
    <path d="M267 262c-5.24-13.54 12.71-13.58 17.29-6.37 4.59 7.21 12.41 33.87 7.46 34.18-5.59.36-15.28-3.36-24.75-27.81z"/>
  </g>
</svg>
